M48
; DRILL file {KiCad (6.0.6)} date Fri Jun 16 11:28:36 2023
; FORMAT={-:-/ absolute / inch / decimal}
; #@! TF.CreationDate,2023-06-16T11:28:36+02:00
; #@! TF.GenerationSoftware,Kicad,Pcbnew,(6.0.6)
; #@! TF.FileFunction,Plated,1,2,PTH
FMAT,2
INCH
; #@! TA.AperFunction,Plated,PTH,ComponentDrill
T1C0.0118
; #@! TA.AperFunction,Plated,PTH,ViaDrill
T2C0.0157
%
G90
G05
T1
X4.2697Y-4.4537
T2
X3.9606Y-3.4917
X3.9606Y-3.6913
X3.9606Y-3.8913
X3.961Y-3.9917
X3.9646Y-2.4902
X3.9665Y-4.2106
X3.9685Y-2.6791
X3.9685Y-2.8602
X3.9685Y-3.0768
X3.972Y-2.0331
X3.9764Y-2.25
X3.9768Y-2.3083
X3.9882Y-4.1161
X4.0039Y-2.6358
X4.0079Y-3.2402
X4.0189Y-4.1969
X4.0354Y-2.25
X4.0354Y-2.4902
X4.0354Y-2.7421
X4.0374Y-2.5453
X4.0394Y-2.4429
X4.0413Y-2.3425
X4.0413Y-2.8425
X4.0413Y-2.939
X4.0433Y-2.5886
X4.0484Y-3.4917
X4.0484Y-3.6913
X4.0484Y-3.9917
X4.0488Y-3.8913
X4.0492Y-3.3917
X4.0669Y-4.065
X4.0827Y-4.2185
X4.122Y-4.4311
X4.1235Y-4.374
X4.1353Y-4.2953
X4.1437Y-4.0256
X4.1535Y-4.1476
X4.2173Y-4.202
X4.2244Y-4.4272
X4.2315Y-3.411
X4.2323Y-2.622
X4.237Y-3.4902
X4.2618Y-2.5295
X4.2693Y-2.3083
X4.2736Y-3.1634
X4.2736Y-3.2402
X4.2874Y-2.6791
X4.2874Y-2.813
X4.3102Y-2.0335
X4.311Y-4.4311
X4.315Y-4.2461
X4.3583Y-2.6181
X4.3594Y-4.2087
X4.3858Y-2.7539
X4.4016Y-4.3209
X4.4331Y-4.4311
X4.4882Y-4.376
X4.5118Y-2.9587
X4.5138Y-2.6201
X4.515Y-2.5441
X4.5169Y-2.2657
X4.5169Y-2.4445
X4.5185Y-4.2087
X4.5394Y-4.4272
X4.563Y-2.75
X4.6098Y-3.4106
X4.6106Y-3.4878
X4.6378Y-4.4272
X4.6654Y-2.4429
X4.6693Y-4.3287
X4.6783Y-4.2087
X4.7205Y-2.6516
X4.7205Y-2.7539
X4.7362Y-4.4272
X4.748Y-2.3327
X4.752Y-2.4941
X4.752Y-2.9272
X4.752Y-3.2421
X4.7642Y-2.0469
X4.7921Y-3.5087
X4.7929Y-3.4433
X4.7992Y-2.3957
X4.8035Y-2.1854
X4.8071Y-2.5394
X4.8091Y-2.6181
X4.8287Y-4.2087
X4.8307Y-4.0437
X4.8346Y-4.4272
X4.9331Y-4.3287
X4.9331Y-4.4272
X4.9646Y-4.1161
X4.9776Y-4.2087
X5.002Y-3.2421
X5.002Y-3.7421
X5.002Y-3.8406
X5.002Y-3.9409
X5.0039Y-2.4646
X5.0157Y-2.376
X5.0157Y-2.9291
X5.0197Y-3.6161
X5.0217Y-3.8839
X5.0236Y-2.7736
X5.0295Y-2.9823
X5.0394Y-2.1063
X5.0394Y-2.2402
X5.0512Y-3.4921
X5.0728Y-3.0118
X5.0839Y-2.5594
X5.0866Y-3.9902
X5.0886Y-3.2953
X5.0886Y-3.7421
X5.0906Y-2.7736
X5.0906Y-3.1831
X5.0906Y-4.2087
T0
M30
