%TF.GenerationSoftware,KiCad,Pcbnew,(6.0.6)*%
%TF.CreationDate,2023-06-16T11:29:41+02:00*%
%TF.ProjectId,RP Pico TX 2.4,52502050-6963-46f2-9054-5820322e342e,rev?*%
%TF.SameCoordinates,Original*%
%TF.FileFunction,Copper,L1,Top*%
%TF.FilePolarity,Positive*%
%FSLAX46Y46*%
G04 Gerber Fmt 4.6, Leading zero omitted, Abs format (unit mm)*
G04 Created by KiCad (PCBNEW (6.0.6)) date 2023-06-16 11:29:41*
%MOMM*%
%LPD*%
G01*
G04 APERTURE LIST*
%TA.AperFunction,ComponentPad*%
%ADD10R,0.900000X0.500000*%
%TD*%
%TA.AperFunction,SMDPad,CuDef*%
%ADD11R,3.500000X1.700000*%
%TD*%
%TA.AperFunction,SMDPad,CuDef*%
%ADD12R,1.000000X1.000000*%
%TD*%
%TA.AperFunction,SMDPad,CuDef*%
%ADD13R,2.200000X1.050000*%
%TD*%
%TA.AperFunction,ViaPad*%
%ADD14C,0.800000*%
%TD*%
%TA.AperFunction,Conductor*%
%ADD15C,0.500000*%
%TD*%
%TA.AperFunction,Conductor*%
%ADD16C,0.250000*%
%TD*%
%TA.AperFunction,Conductor*%
%ADD17C,1.000000*%
%TD*%
G04 APERTURE END LIST*
D10*
%TO.P,AE1,2,Shield*%
%TO.N,GND*%
X108450000Y-113125000D03*
%TD*%
D11*
%TO.P,U1,1,GPIO0*%
%TO.N,unconnected-(U1-Pad1)*%
X105064000Y-51870000D03*
%TO.P,U1,2,GPIO1*%
%TO.N,unconnected-(U1-Pad2)*%
X105064000Y-54410000D03*
%TO.P,U1,3,GND*%
%TO.N,GND*%
X105064000Y-56950000D03*
%TO.P,U1,4,GPIO2*%
%TO.N,DIO1*%
X105064000Y-59490000D03*
%TO.P,U1,5,GPIO3*%
%TO.N,DIO2*%
X105064000Y-62030000D03*
%TO.P,U1,6,GPIO4*%
%TO.N,DIO3*%
X105064000Y-64570000D03*
%TO.P,U1,7,GPIO5*%
%TO.N,unconnected-(U1-Pad7)*%
X105064000Y-67110000D03*
%TO.P,U1,8,GND*%
%TO.N,GND*%
X105064000Y-69650000D03*
%TO.P,U1,9,GPIO6*%
%TO.N,BUSY*%
X105064000Y-72190000D03*
%TO.P,U1,10,GPIO7*%
%TO.N,NRESET*%
X105064000Y-74730000D03*
%TO.P,U1,11,GPIO8*%
%TO.N,unconnected-(U1-Pad11)*%
X105064000Y-77270000D03*
%TO.P,U1,12,GPIO9*%
%TO.N,unconnected-(U1-Pad12)*%
X105064000Y-79810000D03*
%TO.P,U1,13,GND*%
%TO.N,GND*%
X105064000Y-82350000D03*
%TO.P,U1,14,GPIO10*%
%TO.N,unconnected-(U1-Pad14)*%
X105064000Y-84890000D03*
%TO.P,U1,15,GPIO11*%
%TO.N,LED1*%
X105064000Y-87430000D03*
%TO.P,U1,16,GPIO12*%
%TO.N,unconnected-(U1-Pad16)*%
X105064000Y-89970000D03*
%TO.P,U1,17,GPIO13*%
%TO.N,unconnected-(U1-Pad17)*%
X105064000Y-92510000D03*
%TO.P,U1,18,GND*%
%TO.N,GND*%
X105064000Y-95050000D03*
%TO.P,U1,19,GPIO14*%
%TO.N,LED2*%
X105064000Y-97590000D03*
%TO.P,U1,20,GPIO15*%
%TO.N,unconnected-(U1-Pad20)*%
X105064000Y-100130000D03*
%TO.P,U1,21,GPIO16*%
%TO.N,MISO*%
X124644000Y-100130000D03*
%TO.P,U1,22,GPIO17*%
%TO.N,NSS*%
X124644000Y-97590000D03*
%TO.P,U1,23,GND*%
%TO.N,GND*%
X124644000Y-95050000D03*
%TO.P,U1,24,GPIO18*%
%TO.N,SCK*%
X124644000Y-92510000D03*
%TO.P,U1,25,GPIO19*%
%TO.N,MOSI*%
X124644000Y-89970000D03*
%TO.P,U1,26,GPIO20*%
%TO.N,unconnected-(U1-Pad26)*%
X124644000Y-87430000D03*
%TO.P,U1,27,GPIO21*%
%TO.N,unconnected-(U1-Pad27)*%
X124644000Y-84890000D03*
%TO.P,U1,28,GND*%
%TO.N,GND*%
X124644000Y-82350000D03*
%TO.P,U1,29,GPIO22*%
%TO.N,unconnected-(U1-Pad29)*%
X124644000Y-79810000D03*
%TO.P,U1,30,RUN*%
%TO.N,RESET*%
X124644000Y-77270000D03*
%TO.P,U1,31,GPIO26_ADC0*%
%TO.N,unconnected-(U1-Pad31)*%
X124644000Y-74730000D03*
%TO.P,U1,32,GPIO27_ADC1*%
%TO.N,unconnected-(U1-Pad32)*%
X124644000Y-72190000D03*
%TO.P,U1,33,AGND*%
%TO.N,GND*%
X124644000Y-69650000D03*
%TO.P,U1,34,GPIO28_ADC2*%
%TO.N,unconnected-(U1-Pad34)*%
X124644000Y-67110000D03*
%TO.P,U1,35,ADC_VREF*%
%TO.N,unconnected-(U1-Pad35)*%
X124644000Y-64570000D03*
%TO.P,U1,36,3V3*%
%TO.N,+3.3V*%
X124644000Y-62030000D03*
%TO.P,U1,37,3V3_EN*%
%TO.N,unconnected-(U1-Pad37)*%
X124644000Y-59490000D03*
%TO.P,U1,38,GND*%
%TO.N,GND*%
X124644000Y-56950000D03*
%TO.P,U1,39,VSYS*%
%TO.N,unconnected-(U1-Pad39)*%
X124644000Y-54410000D03*
%TO.P,U1,40,VBUS*%
%TO.N,unconnected-(U1-Pad40)*%
X124644000Y-51870000D03*
%TD*%
D12*
%TO.P,J1,1,In*%
%TO.N,ANA*%
X106300000Y-109575000D03*
D13*
%TO.P,J1,2,Ext*%
%TO.N,GND*%
X107800000Y-108100000D03*
X107800000Y-111050000D03*
D12*
X109300000Y-109575000D03*
%TD*%
D14*
%TO.N,GND*%
X118600000Y-109950000D03*
X126100000Y-104550000D03*
X120700000Y-63350000D03*
X118500000Y-62050000D03*
X120600000Y-59250000D03*
X121900000Y-60850000D03*
X127400000Y-60350000D03*
X127600000Y-70450000D03*
X129300000Y-70450000D03*
X108900000Y-71450000D03*
X120700000Y-74350000D03*
X120700000Y-82350000D03*
X108900000Y-68050000D03*
X115900000Y-69850000D03*
X119900000Y-67350000D03*
X111400000Y-69950000D03*
X119900000Y-69950000D03*
X114600000Y-75150000D03*
X101700000Y-66950000D03*
X102700000Y-65750000D03*
X100800000Y-68050000D03*
X102500000Y-69650000D03*
X102500000Y-57150000D03*
X101000000Y-57150000D03*
X102500000Y-63250000D03*
X100700000Y-63250000D03*
X100800000Y-72650000D03*
X100800000Y-78150000D03*
X129200000Y-101350000D03*
X125300000Y-109950000D03*
X114000000Y-111150000D03*
X111800000Y-109750000D03*
X109600000Y-107850000D03*
X103700000Y-107150000D03*
X101300000Y-104550000D03*
X105500000Y-105350000D03*
X103300000Y-103250000D03*
X104700000Y-112550000D03*
X107300000Y-112450000D03*
X112600000Y-112550000D03*
%TO.N,ANA*%
X105037500Y-109100000D03*
%TO.N,GND*%
X104737500Y-111100000D03*
X109500000Y-112550000D03*
X115300000Y-112450000D03*
X117800000Y-112450000D03*
X120300000Y-112450000D03*
X122800000Y-112450000D03*
X125300000Y-112450000D03*
X129300000Y-80850000D03*
X129250000Y-83700000D03*
X127050000Y-82350000D03*
X127550000Y-98650000D03*
X129250000Y-95050000D03*
X127050000Y-95050000D03*
X122150000Y-66500000D03*
X114650000Y-66550000D03*
X110700000Y-66500000D03*
X108250000Y-64250000D03*
X107500000Y-66600000D03*
X122100000Y-64500000D03*
X127400000Y-74400000D03*
X128850000Y-76500000D03*
%TO.N,+3.3V*%
X127100000Y-62600000D03*
%TO.N,RESET*%
X127750000Y-75750000D03*
%TO.N,DIO3*%
X102550000Y-64650000D03*
%TO.N,DIO2*%
X102600000Y-62050000D03*
%TO.N,DIO1*%
X102650000Y-59500000D03*
%TO.N,NRESET*%
X102650000Y-74650000D03*
%TO.N,BUSY*%
X102650000Y-72200000D03*
%TO.N,SCK*%
X127500000Y-91850000D03*
%TO.N,NSS*%
X127050000Y-97550000D03*
%TO.N,MOSI*%
X128300000Y-88700000D03*
%TO.N,MISO*%
X127050000Y-100100000D03*
%TO.N,GND*%
X101800000Y-82300000D03*
X102850000Y-86150000D03*
X108550000Y-82300000D03*
X108550000Y-80350000D03*
X102830000Y-88690000D03*
X114770000Y-106900000D03*
X121010000Y-51990000D03*
X102830000Y-101390000D03*
X117110000Y-88590000D03*
X100750000Y-106950000D03*
X102080000Y-106600000D03*
X129130000Y-65010000D03*
X122650000Y-106900000D03*
X110730000Y-106900000D03*
X114730000Y-62090000D03*
X102830000Y-93760000D03*
X122700000Y-102710000D03*
X114680000Y-64620000D03*
X105250000Y-102250000D03*
X101010000Y-58630000D03*
X108440000Y-58630000D03*
X122010000Y-55510000D03*
X100600000Y-98840000D03*
X128000000Y-53500000D03*
X128000000Y-56900000D03*
X100610000Y-101390000D03*
X114730000Y-57550000D03*
X117090000Y-86630000D03*
X100890000Y-51640000D03*
X129300000Y-106900000D03*
X121720000Y-89120000D03*
X121740000Y-87460000D03*
X100600000Y-93760000D03*
X126430000Y-106900000D03*
X100600000Y-88690000D03*
X109480000Y-51650000D03*
X118830000Y-106900000D03*
X107120000Y-106730000D03*
X102840000Y-98840000D03*
%TO.N,LED1*%
X107480000Y-86640000D03*
%TO.N,LED2*%
X107620000Y-88650000D03*
%TD*%
D15*
%TO.N,ANA*%
X105512500Y-109575000D02*
X105037500Y-109100000D01*
X106300000Y-109575000D02*
X105512500Y-109575000D01*
%TO.N,GND*%
X108450000Y-112500000D02*
X108500000Y-112450000D01*
X108450000Y-113125000D02*
X108450000Y-112500000D01*
D16*
%TO.N,SCK*%
X123754000Y-92500000D02*
X123744000Y-92510000D01*
X126850000Y-92500000D02*
X123754000Y-92500000D01*
X127500000Y-91850000D02*
X126850000Y-92500000D01*
D17*
%TO.N,+3.3V*%
X123764000Y-62050000D02*
X123744000Y-62030000D01*
X127100000Y-62600000D02*
X126550000Y-62050000D01*
X126550000Y-62050000D02*
X123764000Y-62050000D01*
D15*
X123874000Y-61900000D02*
X123744000Y-62030000D01*
D16*
%TO.N,RESET*%
X126230000Y-77270000D02*
X123744000Y-77270000D01*
X127750000Y-75750000D02*
X126230000Y-77270000D01*
%TO.N,DIO1*%
X105954000Y-59500000D02*
X105964000Y-59490000D01*
X102650000Y-59500000D02*
X105954000Y-59500000D01*
%TO.N,DIO2*%
X102620000Y-62030000D02*
X105964000Y-62030000D01*
X102600000Y-62050000D02*
X102620000Y-62030000D01*
%TO.N,DIO3*%
X102550000Y-64650000D02*
X105884000Y-64650000D01*
X105884000Y-64650000D02*
X105964000Y-64570000D01*
%TO.N,BUSY*%
X102650000Y-72200000D02*
X105954000Y-72200000D01*
X105954000Y-72200000D02*
X105964000Y-72190000D01*
%TO.N,NRESET*%
X105884000Y-74650000D02*
X105964000Y-74730000D01*
X102650000Y-74650000D02*
X105884000Y-74650000D01*
%TO.N,NSS*%
X123784000Y-97550000D02*
X123744000Y-97590000D01*
X127050000Y-97550000D02*
X123784000Y-97550000D01*
%TO.N,MOSI*%
X127030000Y-89970000D02*
X123744000Y-89970000D01*
X128300000Y-88700000D02*
X127030000Y-89970000D01*
%TO.N,MISO*%
X123774000Y-100100000D02*
X123744000Y-100130000D01*
X127050000Y-100100000D02*
X123774000Y-100100000D01*
D15*
%TO.N,+3.3V*%
X125604000Y-62030000D02*
X123744000Y-62030000D01*
D16*
%TO.N,LED1*%
X107480000Y-86640000D02*
X106754000Y-86640000D01*
X106754000Y-86640000D02*
X105964000Y-87430000D01*
%TO.N,LED2*%
X107620000Y-96560000D02*
X107620000Y-88650000D01*
X106590000Y-97590000D02*
X107620000Y-96560000D01*
X105964000Y-97590000D02*
X106590000Y-97590000D01*
%TD*%
%TA.AperFunction,Conductor*%
%TO.N,GND*%
G36*
X103072814Y-50918907D02*
G01*
X103108778Y-50968407D01*
X103112234Y-51000252D01*
X103113500Y-51000252D01*
X103113500Y-52739748D01*
X103125133Y-52798231D01*
X103169448Y-52864552D01*
X103235769Y-52908867D01*
X103245332Y-52910769D01*
X103245334Y-52910770D01*
X103268005Y-52915279D01*
X103294252Y-52920500D01*
X106833748Y-52920500D01*
X106859995Y-52915279D01*
X106882666Y-52910770D01*
X106882668Y-52910769D01*
X106892231Y-52908867D01*
X106958552Y-52864552D01*
X107002867Y-52798231D01*
X107014500Y-52739748D01*
X107014500Y-51000252D01*
X107016702Y-51000252D01*
X107027979Y-50948919D01*
X107073725Y-50908288D01*
X107113377Y-50900000D01*
X111381034Y-50900000D01*
X111439225Y-50918907D01*
X111475189Y-50968407D01*
X111475189Y-51029593D01*
X111440268Y-51078324D01*
X111355867Y-51141349D01*
X111212337Y-51296619D01*
X111209919Y-51300452D01*
X111209917Y-51300454D01*
X111194580Y-51324762D01*
X111099505Y-51475446D01*
X111021152Y-51671840D01*
X110979901Y-51879225D01*
X110977133Y-52090654D01*
X110977902Y-52095127D01*
X110977902Y-52095132D01*
X110995647Y-52198399D01*
X111012941Y-52299047D01*
X111086127Y-52497425D01*
X111088446Y-52501324D01*
X111088449Y-52501329D01*
X111141903Y-52591177D01*
X111194238Y-52679144D01*
X111197233Y-52682559D01*
X111197235Y-52682562D01*
X111279787Y-52776694D01*
X111333655Y-52838119D01*
X111337217Y-52840927D01*
X111496143Y-52966214D01*
X111496146Y-52966216D01*
X111499708Y-52969024D01*
X111503726Y-52971138D01*
X111682825Y-53065367D01*
X111682828Y-53065368D01*
X111686836Y-53067477D01*
X111716462Y-53076676D01*
X111884434Y-53128833D01*
X111884437Y-53128834D01*
X111888773Y-53130180D01*
X111893283Y-53130714D01*
X111893284Y-53130714D01*
X111922611Y-53134185D01*
X112060455Y-53150500D01*
X112182641Y-53150500D01*
X112339560Y-53136081D01*
X112543069Y-53078686D01*
X112732710Y-52985165D01*
X112902133Y-52858651D01*
X113045663Y-52703381D01*
X113060956Y-52679144D01*
X113156074Y-52528391D01*
X113158495Y-52524554D01*
X113236848Y-52328160D01*
X113278099Y-52120775D01*
X113280867Y-51909346D01*
X113276823Y-51885807D01*
X113262353Y-51801601D01*
X113245059Y-51700953D01*
X113171873Y-51502575D01*
X113169554Y-51498676D01*
X113169551Y-51498671D01*
X113066086Y-51324762D01*
X113066085Y-51324761D01*
X113063762Y-51320856D01*
X113048583Y-51303547D01*
X112927337Y-51165293D01*
X112924345Y-51161881D01*
X112920785Y-51159074D01*
X112920777Y-51159067D01*
X112816353Y-51076746D01*
X112782360Y-51025873D01*
X112784762Y-50964734D01*
X112822642Y-50916685D01*
X112877643Y-50900000D01*
X116831034Y-50900000D01*
X116889225Y-50918907D01*
X116925189Y-50968407D01*
X116925189Y-51029593D01*
X116890268Y-51078324D01*
X116805867Y-51141349D01*
X116662337Y-51296619D01*
X116659919Y-51300452D01*
X116659917Y-51300454D01*
X116644580Y-51324762D01*
X116549505Y-51475446D01*
X116471152Y-51671840D01*
X116429901Y-51879225D01*
X116427133Y-52090654D01*
X116427902Y-52095127D01*
X116427902Y-52095132D01*
X116445647Y-52198399D01*
X116462941Y-52299047D01*
X116536127Y-52497425D01*
X116538446Y-52501324D01*
X116538449Y-52501329D01*
X116591903Y-52591177D01*
X116644238Y-52679144D01*
X116647233Y-52682559D01*
X116647235Y-52682562D01*
X116729787Y-52776694D01*
X116783655Y-52838119D01*
X116787217Y-52840927D01*
X116946143Y-52966214D01*
X116946146Y-52966216D01*
X116949708Y-52969024D01*
X116953726Y-52971138D01*
X117132825Y-53065367D01*
X117132828Y-53065368D01*
X117136836Y-53067477D01*
X117166462Y-53076676D01*
X117334434Y-53128833D01*
X117334437Y-53128834D01*
X117338773Y-53130180D01*
X117343283Y-53130714D01*
X117343284Y-53130714D01*
X117372611Y-53134185D01*
X117510455Y-53150500D01*
X117632641Y-53150500D01*
X117789560Y-53136081D01*
X117993069Y-53078686D01*
X118182710Y-52985165D01*
X118352133Y-52858651D01*
X118495663Y-52703381D01*
X118510956Y-52679144D01*
X118606074Y-52528391D01*
X118608495Y-52524554D01*
X118686848Y-52328160D01*
X118728099Y-52120775D01*
X118730867Y-51909346D01*
X118726823Y-51885807D01*
X118712353Y-51801601D01*
X118695059Y-51700953D01*
X118621873Y-51502575D01*
X118619554Y-51498676D01*
X118619551Y-51498671D01*
X118516086Y-51324762D01*
X118516085Y-51324761D01*
X118513762Y-51320856D01*
X118498583Y-51303547D01*
X118377337Y-51165293D01*
X118374345Y-51161881D01*
X118370785Y-51159074D01*
X118370777Y-51159067D01*
X118266353Y-51076746D01*
X118232360Y-51025873D01*
X118234762Y-50964734D01*
X118272642Y-50916685D01*
X118327643Y-50900000D01*
X122594623Y-50900000D01*
X122652814Y-50918907D01*
X122688778Y-50968407D01*
X122692234Y-51000252D01*
X122693500Y-51000252D01*
X122693500Y-52739748D01*
X122705133Y-52798231D01*
X122749448Y-52864552D01*
X122815769Y-52908867D01*
X122825332Y-52910769D01*
X122825334Y-52910770D01*
X122848005Y-52915279D01*
X122874252Y-52920500D01*
X126413748Y-52920500D01*
X126439995Y-52915279D01*
X126462666Y-52910770D01*
X126462668Y-52910769D01*
X126472231Y-52908867D01*
X126538552Y-52864552D01*
X126582867Y-52798231D01*
X126594500Y-52739748D01*
X126594500Y-51000252D01*
X126596702Y-51000252D01*
X126607979Y-50948919D01*
X126653725Y-50908288D01*
X126693377Y-50900000D01*
X126851787Y-50900000D01*
X126909978Y-50918907D01*
X126947413Y-50973374D01*
X126951295Y-50987860D01*
X126951298Y-50987869D01*
X126951967Y-50990366D01*
X127072185Y-51303547D01*
X127224482Y-51602446D01*
X127225893Y-51604618D01*
X127225896Y-51604624D01*
X127405771Y-51881607D01*
X127405777Y-51881615D01*
X127407188Y-51883788D01*
X127618301Y-52144491D01*
X127855509Y-52381699D01*
X128116212Y-52592812D01*
X128118385Y-52594223D01*
X128118393Y-52594229D01*
X128395376Y-52774104D01*
X128395382Y-52774107D01*
X128397554Y-52775518D01*
X128696453Y-52927815D01*
X129009634Y-53048033D01*
X129074325Y-53065367D01*
X129331156Y-53134185D01*
X129331161Y-53134186D01*
X129333665Y-53134857D01*
X129336236Y-53135264D01*
X129336235Y-53135264D01*
X129662432Y-53186929D01*
X129662440Y-53186930D01*
X129664998Y-53187335D01*
X129705681Y-53189467D01*
X129762803Y-53211393D01*
X129796127Y-53262708D01*
X129799500Y-53288331D01*
X129799500Y-107500000D01*
X109087595Y-107500000D01*
X109082979Y-107488858D01*
X109049611Y-107438918D01*
X109036082Y-107425389D01*
X108986142Y-107392021D01*
X108968474Y-107384702D01*
X108924462Y-107375948D01*
X108914840Y-107375000D01*
X107915680Y-107375000D01*
X107902995Y-107379122D01*
X107900000Y-107383243D01*
X107900000Y-107500000D01*
X107700000Y-107500000D01*
X107700000Y-107390680D01*
X107695878Y-107377995D01*
X107691757Y-107375000D01*
X106685160Y-107375000D01*
X106675538Y-107375948D01*
X106631526Y-107384702D01*
X106613858Y-107392021D01*
X106563918Y-107425389D01*
X106550389Y-107438918D01*
X106517021Y-107488858D01*
X106512405Y-107500000D01*
X100200500Y-107500000D01*
X100200500Y-100999748D01*
X103113500Y-100999748D01*
X103125133Y-101058231D01*
X103169448Y-101124552D01*
X103235769Y-101168867D01*
X103245332Y-101170769D01*
X103245334Y-101170770D01*
X103268005Y-101175279D01*
X103294252Y-101180500D01*
X106833748Y-101180500D01*
X106859995Y-101175279D01*
X106882666Y-101170770D01*
X106882668Y-101170769D01*
X106892231Y-101168867D01*
X106958552Y-101124552D01*
X107002867Y-101058231D01*
X107014500Y-100999748D01*
X107014500Y-99260252D01*
X107002867Y-99201769D01*
X106958552Y-99135448D01*
X106892231Y-99091133D01*
X106882668Y-99089231D01*
X106882666Y-99089230D01*
X106859995Y-99084721D01*
X106833748Y-99079500D01*
X103294252Y-99079500D01*
X103268005Y-99084721D01*
X103245334Y-99089230D01*
X103245332Y-99089231D01*
X103235769Y-99091133D01*
X103169448Y-99135448D01*
X103125133Y-99201769D01*
X103113500Y-99260252D01*
X103113500Y-100999748D01*
X100200500Y-100999748D01*
X100200500Y-98459748D01*
X103113500Y-98459748D01*
X103125133Y-98518231D01*
X103169448Y-98584552D01*
X103235769Y-98628867D01*
X103245332Y-98630769D01*
X103245334Y-98630770D01*
X103268005Y-98635279D01*
X103294252Y-98640500D01*
X106833748Y-98640500D01*
X106859995Y-98635279D01*
X106882666Y-98630770D01*
X106882668Y-98630769D01*
X106892231Y-98628867D01*
X106958552Y-98584552D01*
X107002867Y-98518231D01*
X107014500Y-98459748D01*
X107014500Y-97666834D01*
X107033407Y-97608643D01*
X107043496Y-97596830D01*
X107626597Y-97013729D01*
X107681114Y-96985952D01*
X107741546Y-96995523D01*
X107784811Y-97038788D01*
X107795601Y-97083796D01*
X107790000Y-105950000D01*
X121890000Y-105950000D01*
X121886951Y-101116442D01*
X121886877Y-100999748D01*
X122693500Y-100999748D01*
X122705133Y-101058231D01*
X122749448Y-101124552D01*
X122815769Y-101168867D01*
X122825332Y-101170769D01*
X122825334Y-101170770D01*
X122848005Y-101175279D01*
X122874252Y-101180500D01*
X126413748Y-101180500D01*
X126439995Y-101175279D01*
X126462666Y-101170770D01*
X126462668Y-101170769D01*
X126472231Y-101168867D01*
X126538552Y-101124552D01*
X126582867Y-101058231D01*
X126594500Y-100999748D01*
X126594500Y-100706893D01*
X126613407Y-100648702D01*
X126662907Y-100612738D01*
X126724093Y-100612738D01*
X126742417Y-100620898D01*
X126747159Y-100624536D01*
X126893238Y-100685044D01*
X127050000Y-100705682D01*
X127206762Y-100685044D01*
X127352841Y-100624536D01*
X127478282Y-100528282D01*
X127574536Y-100402841D01*
X127635044Y-100256762D01*
X127655682Y-100100000D01*
X127635044Y-99943238D01*
X127574536Y-99797159D01*
X127478282Y-99671718D01*
X127352841Y-99575464D01*
X127206762Y-99514956D01*
X127050000Y-99494318D01*
X126893238Y-99514956D01*
X126747159Y-99575464D01*
X126742663Y-99578914D01*
X126683154Y-99591565D01*
X126627258Y-99566680D01*
X126596664Y-99513692D01*
X126594500Y-99493107D01*
X126594500Y-99260252D01*
X126582867Y-99201769D01*
X126538552Y-99135448D01*
X126472231Y-99091133D01*
X126462668Y-99089231D01*
X126462666Y-99089230D01*
X126439995Y-99084721D01*
X126413748Y-99079500D01*
X122874252Y-99079500D01*
X122848005Y-99084721D01*
X122825334Y-99089230D01*
X122825332Y-99089231D01*
X122815769Y-99091133D01*
X122749448Y-99135448D01*
X122705133Y-99201769D01*
X122693500Y-99260252D01*
X122693500Y-100999748D01*
X121886877Y-100999748D01*
X121885275Y-98459748D01*
X122693500Y-98459748D01*
X122705133Y-98518231D01*
X122749448Y-98584552D01*
X122815769Y-98628867D01*
X122825332Y-98630769D01*
X122825334Y-98630770D01*
X122848005Y-98635279D01*
X122874252Y-98640500D01*
X126413748Y-98640500D01*
X126439995Y-98635279D01*
X126462666Y-98630770D01*
X126462668Y-98630769D01*
X126472231Y-98628867D01*
X126538552Y-98584552D01*
X126582867Y-98518231D01*
X126594500Y-98459748D01*
X126594500Y-98156893D01*
X126613407Y-98098702D01*
X126662907Y-98062738D01*
X126724093Y-98062738D01*
X126742417Y-98070898D01*
X126747159Y-98074536D01*
X126893238Y-98135044D01*
X127050000Y-98155682D01*
X127206762Y-98135044D01*
X127352841Y-98074536D01*
X127478282Y-97978282D01*
X127574536Y-97852841D01*
X127635044Y-97706762D01*
X127655682Y-97550000D01*
X127635044Y-97393238D01*
X127574536Y-97247159D01*
X127478282Y-97121718D01*
X127352841Y-97025464D01*
X127206762Y-96964956D01*
X127050000Y-96944318D01*
X126893238Y-96964956D01*
X126747159Y-97025464D01*
X126742663Y-97028914D01*
X126683154Y-97041565D01*
X126627258Y-97016680D01*
X126596664Y-96963692D01*
X126594500Y-96943107D01*
X126594500Y-96720252D01*
X126582867Y-96661769D01*
X126538552Y-96595448D01*
X126472231Y-96551133D01*
X126462668Y-96549231D01*
X126462666Y-96549230D01*
X126439995Y-96544721D01*
X126413748Y-96539500D01*
X122874252Y-96539500D01*
X122848005Y-96544721D01*
X122825334Y-96549230D01*
X122825332Y-96549231D01*
X122815769Y-96551133D01*
X122749448Y-96595448D01*
X122705133Y-96661769D01*
X122693500Y-96720252D01*
X122693500Y-98459748D01*
X121885275Y-98459748D01*
X121883670Y-95914840D01*
X122694000Y-95914840D01*
X122694948Y-95924462D01*
X122703702Y-95968474D01*
X122711021Y-95986142D01*
X122744389Y-96036082D01*
X122757918Y-96049611D01*
X122807858Y-96082979D01*
X122825526Y-96090298D01*
X122869538Y-96099052D01*
X122879160Y-96100000D01*
X124528320Y-96100000D01*
X124541005Y-96095878D01*
X124544000Y-96091757D01*
X124544000Y-96084320D01*
X124744000Y-96084320D01*
X124748122Y-96097005D01*
X124752243Y-96100000D01*
X126408840Y-96100000D01*
X126418462Y-96099052D01*
X126462474Y-96090298D01*
X126480142Y-96082979D01*
X126530082Y-96049611D01*
X126543611Y-96036082D01*
X126576979Y-95986142D01*
X126584298Y-95968474D01*
X126593052Y-95924462D01*
X126594000Y-95914840D01*
X126594000Y-95165680D01*
X126589878Y-95152995D01*
X126585757Y-95150000D01*
X124759680Y-95150000D01*
X124746995Y-95154122D01*
X124744000Y-95158243D01*
X124744000Y-96084320D01*
X124544000Y-96084320D01*
X124544000Y-95165680D01*
X124539878Y-95152995D01*
X124535757Y-95150000D01*
X122709680Y-95150000D01*
X122696995Y-95154122D01*
X122694000Y-95158243D01*
X122694000Y-95914840D01*
X121883670Y-95914840D01*
X121883051Y-94934320D01*
X122694000Y-94934320D01*
X122698122Y-94947005D01*
X122702243Y-94950000D01*
X124528320Y-94950000D01*
X124541005Y-94945878D01*
X124544000Y-94941757D01*
X124544000Y-94934320D01*
X124744000Y-94934320D01*
X124748122Y-94947005D01*
X124752243Y-94950000D01*
X126578320Y-94950000D01*
X126591005Y-94945878D01*
X126594000Y-94941757D01*
X126594000Y-94185160D01*
X126593052Y-94175538D01*
X126584298Y-94131526D01*
X126576979Y-94113858D01*
X126543611Y-94063918D01*
X126530082Y-94050389D01*
X126480142Y-94017021D01*
X126462474Y-94009702D01*
X126418462Y-94000948D01*
X126408840Y-94000000D01*
X124759680Y-94000000D01*
X124746995Y-94004122D01*
X124744000Y-94008243D01*
X124744000Y-94934320D01*
X124544000Y-94934320D01*
X124544000Y-94015680D01*
X124539878Y-94002995D01*
X124535757Y-94000000D01*
X122879160Y-94000000D01*
X122869538Y-94000948D01*
X122825526Y-94009702D01*
X122807858Y-94017021D01*
X122757918Y-94050389D01*
X122744389Y-94063918D01*
X122711021Y-94113858D01*
X122703702Y-94131526D01*
X122694948Y-94175538D01*
X122694000Y-94185160D01*
X122694000Y-94934320D01*
X121883051Y-94934320D01*
X121882070Y-93379748D01*
X122693500Y-93379748D01*
X122705133Y-93438231D01*
X122749448Y-93504552D01*
X122815769Y-93548867D01*
X122825332Y-93550769D01*
X122825334Y-93550770D01*
X122848005Y-93555279D01*
X122874252Y-93560500D01*
X126413748Y-93560500D01*
X126439995Y-93555279D01*
X126462666Y-93550770D01*
X126462668Y-93550769D01*
X126472231Y-93548867D01*
X126538552Y-93504552D01*
X126582867Y-93438231D01*
X126594500Y-93379748D01*
X126594500Y-92924500D01*
X126613407Y-92866309D01*
X126662907Y-92830345D01*
X126693500Y-92825500D01*
X126831466Y-92825500D01*
X126840095Y-92825877D01*
X126878807Y-92829264D01*
X126916350Y-92819204D01*
X126924784Y-92817334D01*
X126954517Y-92812092D01*
X126954519Y-92812091D01*
X126963045Y-92810588D01*
X126970544Y-92806258D01*
X126976029Y-92804262D01*
X126981316Y-92801796D01*
X126989684Y-92799554D01*
X127021511Y-92777268D01*
X127028795Y-92772627D01*
X127062455Y-92753194D01*
X127087431Y-92723429D01*
X127093265Y-92717061D01*
X127337033Y-92473293D01*
X127391550Y-92445516D01*
X127419955Y-92445144D01*
X127500000Y-92455682D01*
X127656762Y-92435044D01*
X127802841Y-92374536D01*
X127928282Y-92278282D01*
X128024536Y-92152841D01*
X128085044Y-92006762D01*
X128105682Y-91850000D01*
X128085044Y-91693238D01*
X128024536Y-91547159D01*
X127928282Y-91421718D01*
X127802841Y-91325464D01*
X127656762Y-91264956D01*
X127500000Y-91244318D01*
X127343238Y-91264956D01*
X127197159Y-91325464D01*
X127071718Y-91421718D01*
X126975464Y-91547159D01*
X126914956Y-91693238D01*
X126894318Y-91850000D01*
X126904856Y-91930042D01*
X126893706Y-91990201D01*
X126876707Y-92012967D01*
X126763504Y-92126170D01*
X126708987Y-92153947D01*
X126648555Y-92144376D01*
X126605290Y-92101111D01*
X126594500Y-92056166D01*
X126594500Y-91640252D01*
X126582867Y-91581769D01*
X126538552Y-91515448D01*
X126472231Y-91471133D01*
X126462668Y-91469231D01*
X126462666Y-91469230D01*
X126439995Y-91464721D01*
X126413748Y-91459500D01*
X122874252Y-91459500D01*
X122848005Y-91464721D01*
X122825334Y-91469230D01*
X122825332Y-91469231D01*
X122815769Y-91471133D01*
X122749448Y-91515448D01*
X122705133Y-91581769D01*
X122693500Y-91640252D01*
X122693500Y-93379748D01*
X121882070Y-93379748D01*
X121880467Y-90839748D01*
X122693500Y-90839748D01*
X122705133Y-90898231D01*
X122749448Y-90964552D01*
X122815769Y-91008867D01*
X122825332Y-91010769D01*
X122825334Y-91010770D01*
X122848005Y-91015279D01*
X122874252Y-91020500D01*
X126413748Y-91020500D01*
X126439995Y-91015279D01*
X126462666Y-91010770D01*
X126462668Y-91010769D01*
X126472231Y-91008867D01*
X126538552Y-90964552D01*
X126582867Y-90898231D01*
X126594500Y-90839748D01*
X126594500Y-90394500D01*
X126613407Y-90336309D01*
X126662907Y-90300345D01*
X126693500Y-90295500D01*
X127011466Y-90295500D01*
X127020095Y-90295877D01*
X127058807Y-90299264D01*
X127096350Y-90289204D01*
X127104784Y-90287334D01*
X127134517Y-90282092D01*
X127134519Y-90282091D01*
X127143045Y-90280588D01*
X127150544Y-90276258D01*
X127156029Y-90274262D01*
X127161316Y-90271796D01*
X127169684Y-90269554D01*
X127201511Y-90247268D01*
X127208795Y-90242627D01*
X127234953Y-90227525D01*
X127242455Y-90223194D01*
X127267440Y-90193419D01*
X127273264Y-90187063D01*
X128137033Y-89323294D01*
X128191550Y-89295517D01*
X128219958Y-89295145D01*
X128293565Y-89304835D01*
X128293566Y-89304835D01*
X128300000Y-89305682D01*
X128456762Y-89285044D01*
X128602841Y-89224536D01*
X128728282Y-89128282D01*
X128824536Y-89002841D01*
X128885044Y-88856762D01*
X128905682Y-88700000D01*
X128885044Y-88543238D01*
X128824536Y-88397159D01*
X128728282Y-88271718D01*
X128602841Y-88175464D01*
X128456762Y-88114956D01*
X128300000Y-88094318D01*
X128143238Y-88114956D01*
X127997159Y-88175464D01*
X127871718Y-88271718D01*
X127775464Y-88397159D01*
X127714956Y-88543238D01*
X127694318Y-88700000D01*
X127695165Y-88706434D01*
X127695165Y-88706435D01*
X127704855Y-88780042D01*
X127693705Y-88840202D01*
X127676706Y-88862967D01*
X126924170Y-89615504D01*
X126869653Y-89643281D01*
X126854166Y-89644500D01*
X126693500Y-89644500D01*
X126635309Y-89625593D01*
X126599345Y-89576093D01*
X126594500Y-89545500D01*
X126594500Y-89100252D01*
X126582867Y-89041769D01*
X126538552Y-88975448D01*
X126472231Y-88931133D01*
X126462668Y-88929231D01*
X126462666Y-88929230D01*
X126431816Y-88923094D01*
X126413748Y-88919500D01*
X122874252Y-88919500D01*
X122856184Y-88923094D01*
X122825334Y-88929230D01*
X122825332Y-88929231D01*
X122815769Y-88931133D01*
X122749448Y-88975448D01*
X122705133Y-89041769D01*
X122693500Y-89100252D01*
X122693500Y-90839748D01*
X121880467Y-90839748D01*
X121880010Y-90115679D01*
X121880000Y-90100000D01*
X113131375Y-90112427D01*
X108044641Y-90119652D01*
X107986423Y-90100827D01*
X107950389Y-90051378D01*
X107945500Y-90020652D01*
X107945500Y-89205970D01*
X107964407Y-89147779D01*
X107984233Y-89127428D01*
X108025859Y-89095488D01*
X108048282Y-89078282D01*
X108144536Y-88952841D01*
X108199733Y-88819585D01*
X108202560Y-88812759D01*
X108205044Y-88806762D01*
X108225682Y-88650000D01*
X108205044Y-88493238D01*
X108144536Y-88347159D01*
X108108156Y-88299748D01*
X122693500Y-88299748D01*
X122694448Y-88304512D01*
X122702931Y-88347159D01*
X122705133Y-88358231D01*
X122749448Y-88424552D01*
X122815769Y-88468867D01*
X122825332Y-88470769D01*
X122825334Y-88470770D01*
X122848005Y-88475279D01*
X122874252Y-88480500D01*
X126413748Y-88480500D01*
X126439995Y-88475279D01*
X126462666Y-88470770D01*
X126462668Y-88470769D01*
X126472231Y-88468867D01*
X126538552Y-88424552D01*
X126582867Y-88358231D01*
X126585070Y-88347159D01*
X126593552Y-88304512D01*
X126594500Y-88299748D01*
X126594500Y-86560252D01*
X126582867Y-86501769D01*
X126538552Y-86435448D01*
X126472231Y-86391133D01*
X126462668Y-86389231D01*
X126462666Y-86389230D01*
X126439995Y-86384721D01*
X126413748Y-86379500D01*
X122874252Y-86379500D01*
X122848005Y-86384721D01*
X122825334Y-86389230D01*
X122825332Y-86389231D01*
X122815769Y-86391133D01*
X122749448Y-86435448D01*
X122705133Y-86501769D01*
X122693500Y-86560252D01*
X122693500Y-88299748D01*
X108108156Y-88299748D01*
X108048282Y-88221718D01*
X107922841Y-88125464D01*
X107776762Y-88064956D01*
X107620000Y-88044318D01*
X107463238Y-88064956D01*
X107317159Y-88125464D01*
X107191718Y-88221718D01*
X107187764Y-88226871D01*
X107183504Y-88231131D01*
X107128987Y-88258908D01*
X107068555Y-88249337D01*
X107025290Y-88206072D01*
X107014500Y-88161127D01*
X107014500Y-87240475D01*
X107033407Y-87182284D01*
X107082907Y-87146320D01*
X107144093Y-87146320D01*
X107166078Y-87157888D01*
X107166393Y-87157342D01*
X107172010Y-87160585D01*
X107177159Y-87164536D01*
X107323238Y-87225044D01*
X107480000Y-87245682D01*
X107636762Y-87225044D01*
X107782841Y-87164536D01*
X107908282Y-87068282D01*
X108004536Y-86942841D01*
X108065044Y-86796762D01*
X108085682Y-86640000D01*
X108065044Y-86483238D01*
X108004536Y-86337159D01*
X107908282Y-86211718D01*
X107782841Y-86115464D01*
X107636762Y-86054956D01*
X107480000Y-86034318D01*
X107323238Y-86054956D01*
X107177159Y-86115464D01*
X107051718Y-86211718D01*
X107047764Y-86216871D01*
X107002572Y-86275767D01*
X106952148Y-86310423D01*
X106924030Y-86314500D01*
X106772534Y-86314500D01*
X106763905Y-86314123D01*
X106733822Y-86311491D01*
X106725193Y-86310736D01*
X106716826Y-86312978D01*
X106687651Y-86320796D01*
X106679216Y-86322666D01*
X106649483Y-86327908D01*
X106649481Y-86327909D01*
X106640955Y-86329412D01*
X106633456Y-86333742D01*
X106627971Y-86335738D01*
X106622683Y-86338204D01*
X106614316Y-86340446D01*
X106607219Y-86345415D01*
X106607220Y-86345415D01*
X106584113Y-86361595D01*
X106527328Y-86379500D01*
X103294252Y-86379500D01*
X103268005Y-86384721D01*
X103245334Y-86389230D01*
X103245332Y-86389231D01*
X103235769Y-86391133D01*
X103169448Y-86435448D01*
X103125133Y-86501769D01*
X103113500Y-86560252D01*
X103113500Y-88299748D01*
X103114448Y-88304512D01*
X103122931Y-88347159D01*
X103125133Y-88358231D01*
X103169448Y-88424552D01*
X103235769Y-88468867D01*
X103245332Y-88470769D01*
X103245334Y-88470770D01*
X103268005Y-88475279D01*
X103294252Y-88480500D01*
X106833748Y-88480500D01*
X106859995Y-88475279D01*
X106882666Y-88470770D01*
X106882668Y-88470769D01*
X106892231Y-88468867D01*
X106893571Y-88467972D01*
X106949444Y-88463574D01*
X107001613Y-88495543D01*
X107025029Y-88552070D01*
X107024487Y-88572758D01*
X107014318Y-88650000D01*
X107034956Y-88806762D01*
X107037440Y-88812759D01*
X107039119Y-88819025D01*
X107037028Y-88819585D01*
X107041066Y-88870926D01*
X107009094Y-88923094D01*
X106952565Y-88946506D01*
X106906915Y-88939275D01*
X106900340Y-88936551D01*
X106892231Y-88931133D01*
X106882668Y-88929231D01*
X106882666Y-88929230D01*
X106851816Y-88923094D01*
X106833748Y-88919500D01*
X103294252Y-88919500D01*
X103276184Y-88923094D01*
X103245334Y-88929230D01*
X103245332Y-88929231D01*
X103235769Y-88931133D01*
X103169448Y-88975448D01*
X103125133Y-89041769D01*
X103113500Y-89100252D01*
X103113500Y-90839748D01*
X103125133Y-90898231D01*
X103169448Y-90964552D01*
X103235769Y-91008867D01*
X103245332Y-91010769D01*
X103245334Y-91010770D01*
X103268005Y-91015279D01*
X103294252Y-91020500D01*
X106833748Y-91020500D01*
X106859995Y-91015279D01*
X106882666Y-91010770D01*
X106882668Y-91010769D01*
X106892231Y-91008867D01*
X106958552Y-90964552D01*
X107002867Y-90898231D01*
X107014500Y-90839748D01*
X107014500Y-89138873D01*
X107033407Y-89080682D01*
X107082907Y-89044718D01*
X107144093Y-89044718D01*
X107183504Y-89068869D01*
X107187764Y-89073129D01*
X107191718Y-89078282D01*
X107214142Y-89095488D01*
X107255767Y-89127428D01*
X107290423Y-89177852D01*
X107294500Y-89205970D01*
X107294500Y-96384166D01*
X107275593Y-96442357D01*
X107265504Y-96454169D01*
X107110048Y-96609626D01*
X107055531Y-96637404D01*
X106995099Y-96627833D01*
X106970040Y-96609627D01*
X106963971Y-96603558D01*
X106958552Y-96595448D01*
X106892231Y-96551133D01*
X106882668Y-96549231D01*
X106882666Y-96549230D01*
X106859995Y-96544721D01*
X106833748Y-96539500D01*
X103294252Y-96539500D01*
X103268005Y-96544721D01*
X103245334Y-96549230D01*
X103245332Y-96549231D01*
X103235769Y-96551133D01*
X103169448Y-96595448D01*
X103125133Y-96661769D01*
X103113500Y-96720252D01*
X103113500Y-98459748D01*
X100200500Y-98459748D01*
X100200500Y-95914840D01*
X103114000Y-95914840D01*
X103114948Y-95924462D01*
X103123702Y-95968474D01*
X103131021Y-95986142D01*
X103164389Y-96036082D01*
X103177918Y-96049611D01*
X103227858Y-96082979D01*
X103245526Y-96090298D01*
X103289538Y-96099052D01*
X103299160Y-96100000D01*
X104948320Y-96100000D01*
X104961005Y-96095878D01*
X104964000Y-96091757D01*
X104964000Y-96084320D01*
X105164000Y-96084320D01*
X105168122Y-96097005D01*
X105172243Y-96100000D01*
X106828840Y-96100000D01*
X106838462Y-96099052D01*
X106882474Y-96090298D01*
X106900142Y-96082979D01*
X106950082Y-96049611D01*
X106963611Y-96036082D01*
X106996979Y-95986142D01*
X107004298Y-95968474D01*
X107013052Y-95924462D01*
X107014000Y-95914840D01*
X107014000Y-95165680D01*
X107009878Y-95152995D01*
X107005757Y-95150000D01*
X105179680Y-95150000D01*
X105166995Y-95154122D01*
X105164000Y-95158243D01*
X105164000Y-96084320D01*
X104964000Y-96084320D01*
X104964000Y-95165680D01*
X104959878Y-95152995D01*
X104955757Y-95150000D01*
X103129680Y-95150000D01*
X103116995Y-95154122D01*
X103114000Y-95158243D01*
X103114000Y-95914840D01*
X100200500Y-95914840D01*
X100200500Y-94934320D01*
X103114000Y-94934320D01*
X103118122Y-94947005D01*
X103122243Y-94950000D01*
X104948320Y-94950000D01*
X104961005Y-94945878D01*
X104964000Y-94941757D01*
X104964000Y-94934320D01*
X105164000Y-94934320D01*
X105168122Y-94947005D01*
X105172243Y-94950000D01*
X106998320Y-94950000D01*
X107011005Y-94945878D01*
X107014000Y-94941757D01*
X107014000Y-94185160D01*
X107013052Y-94175538D01*
X107004298Y-94131526D01*
X106996979Y-94113858D01*
X106963611Y-94063918D01*
X106950082Y-94050389D01*
X106900142Y-94017021D01*
X106882474Y-94009702D01*
X106838462Y-94000948D01*
X106828840Y-94000000D01*
X105179680Y-94000000D01*
X105166995Y-94004122D01*
X105164000Y-94008243D01*
X105164000Y-94934320D01*
X104964000Y-94934320D01*
X104964000Y-94015680D01*
X104959878Y-94002995D01*
X104955757Y-94000000D01*
X103299160Y-94000000D01*
X103289538Y-94000948D01*
X103245526Y-94009702D01*
X103227858Y-94017021D01*
X103177918Y-94050389D01*
X103164389Y-94063918D01*
X103131021Y-94113858D01*
X103123702Y-94131526D01*
X103114948Y-94175538D01*
X103114000Y-94185160D01*
X103114000Y-94934320D01*
X100200500Y-94934320D01*
X100200500Y-93379748D01*
X103113500Y-93379748D01*
X103125133Y-93438231D01*
X103169448Y-93504552D01*
X103235769Y-93548867D01*
X103245332Y-93550769D01*
X103245334Y-93550770D01*
X103268005Y-93555279D01*
X103294252Y-93560500D01*
X106833748Y-93560500D01*
X106859995Y-93555279D01*
X106882666Y-93550770D01*
X106882668Y-93550769D01*
X106892231Y-93548867D01*
X106958552Y-93504552D01*
X107002867Y-93438231D01*
X107014500Y-93379748D01*
X107014500Y-91640252D01*
X107002867Y-91581769D01*
X106958552Y-91515448D01*
X106892231Y-91471133D01*
X106882668Y-91469231D01*
X106882666Y-91469230D01*
X106859995Y-91464721D01*
X106833748Y-91459500D01*
X103294252Y-91459500D01*
X103268005Y-91464721D01*
X103245334Y-91469230D01*
X103245332Y-91469231D01*
X103235769Y-91471133D01*
X103169448Y-91515448D01*
X103125133Y-91581769D01*
X103113500Y-91640252D01*
X103113500Y-93379748D01*
X100200500Y-93379748D01*
X100200500Y-85759748D01*
X103113500Y-85759748D01*
X103125133Y-85818231D01*
X103169448Y-85884552D01*
X103235769Y-85928867D01*
X103245332Y-85930769D01*
X103245334Y-85930770D01*
X103268005Y-85935279D01*
X103294252Y-85940500D01*
X106833748Y-85940500D01*
X106859995Y-85935279D01*
X106882666Y-85930770D01*
X106882668Y-85930769D01*
X106892231Y-85928867D01*
X106958552Y-85884552D01*
X107002867Y-85818231D01*
X107014500Y-85759748D01*
X122693500Y-85759748D01*
X122705133Y-85818231D01*
X122749448Y-85884552D01*
X122815769Y-85928867D01*
X122825332Y-85930769D01*
X122825334Y-85930770D01*
X122848005Y-85935279D01*
X122874252Y-85940500D01*
X126413748Y-85940500D01*
X126439995Y-85935279D01*
X126462666Y-85930770D01*
X126462668Y-85930769D01*
X126472231Y-85928867D01*
X126538552Y-85884552D01*
X126582867Y-85818231D01*
X126594500Y-85759748D01*
X126594500Y-84020252D01*
X126582867Y-83961769D01*
X126538552Y-83895448D01*
X126472231Y-83851133D01*
X126462668Y-83849231D01*
X126462666Y-83849230D01*
X126439995Y-83844721D01*
X126413748Y-83839500D01*
X122874252Y-83839500D01*
X122848005Y-83844721D01*
X122825334Y-83849230D01*
X122825332Y-83849231D01*
X122815769Y-83851133D01*
X122749448Y-83895448D01*
X122705133Y-83961769D01*
X122693500Y-84020252D01*
X122693500Y-85759748D01*
X107014500Y-85759748D01*
X107014500Y-84020252D01*
X107002867Y-83961769D01*
X106958552Y-83895448D01*
X106892231Y-83851133D01*
X106882668Y-83849231D01*
X106882666Y-83849230D01*
X106859995Y-83844721D01*
X106833748Y-83839500D01*
X103294252Y-83839500D01*
X103268005Y-83844721D01*
X103245334Y-83849230D01*
X103245332Y-83849231D01*
X103235769Y-83851133D01*
X103169448Y-83895448D01*
X103125133Y-83961769D01*
X103113500Y-84020252D01*
X103113500Y-85759748D01*
X100200500Y-85759748D01*
X100200500Y-83214840D01*
X103114000Y-83214840D01*
X103114948Y-83224462D01*
X103123702Y-83268474D01*
X103131021Y-83286142D01*
X103164389Y-83336082D01*
X103177918Y-83349611D01*
X103227858Y-83382979D01*
X103245526Y-83390298D01*
X103289538Y-83399052D01*
X103299160Y-83400000D01*
X104948320Y-83400000D01*
X104961005Y-83395878D01*
X104964000Y-83391757D01*
X104964000Y-83384320D01*
X105164000Y-83384320D01*
X105168122Y-83397005D01*
X105172243Y-83400000D01*
X106828840Y-83400000D01*
X106838462Y-83399052D01*
X106882474Y-83390298D01*
X106900142Y-83382979D01*
X106950082Y-83349611D01*
X106963611Y-83336082D01*
X106996979Y-83286142D01*
X107004298Y-83268474D01*
X107013052Y-83224462D01*
X107014000Y-83214840D01*
X122694000Y-83214840D01*
X122694948Y-83224462D01*
X122703702Y-83268474D01*
X122711021Y-83286142D01*
X122744389Y-83336082D01*
X122757918Y-83349611D01*
X122807858Y-83382979D01*
X122825526Y-83390298D01*
X122869538Y-83399052D01*
X122879160Y-83400000D01*
X124528320Y-83400000D01*
X124541005Y-83395878D01*
X124544000Y-83391757D01*
X124544000Y-83384320D01*
X124744000Y-83384320D01*
X124748122Y-83397005D01*
X124752243Y-83400000D01*
X126408840Y-83400000D01*
X126418462Y-83399052D01*
X126462474Y-83390298D01*
X126480142Y-83382979D01*
X126530082Y-83349611D01*
X126543611Y-83336082D01*
X126576979Y-83286142D01*
X126584298Y-83268474D01*
X126593052Y-83224462D01*
X126594000Y-83214840D01*
X126594000Y-82465680D01*
X126589878Y-82452995D01*
X126585757Y-82450000D01*
X124759680Y-82450000D01*
X124746995Y-82454122D01*
X124744000Y-82458243D01*
X124744000Y-83384320D01*
X124544000Y-83384320D01*
X124544000Y-82465680D01*
X124539878Y-82452995D01*
X124535757Y-82450000D01*
X122709680Y-82450000D01*
X122696995Y-82454122D01*
X122694000Y-82458243D01*
X122694000Y-83214840D01*
X107014000Y-83214840D01*
X107014000Y-82465680D01*
X107009878Y-82452995D01*
X107005757Y-82450000D01*
X105179680Y-82450000D01*
X105166995Y-82454122D01*
X105164000Y-82458243D01*
X105164000Y-83384320D01*
X104964000Y-83384320D01*
X104964000Y-82465680D01*
X104959878Y-82452995D01*
X104955757Y-82450000D01*
X103129680Y-82450000D01*
X103116995Y-82454122D01*
X103114000Y-82458243D01*
X103114000Y-83214840D01*
X100200500Y-83214840D01*
X100200500Y-82234320D01*
X103114000Y-82234320D01*
X103118122Y-82247005D01*
X103122243Y-82250000D01*
X104948320Y-82250000D01*
X104961005Y-82245878D01*
X104964000Y-82241757D01*
X104964000Y-82234320D01*
X105164000Y-82234320D01*
X105168122Y-82247005D01*
X105172243Y-82250000D01*
X106998320Y-82250000D01*
X107011005Y-82245878D01*
X107014000Y-82241757D01*
X107014000Y-82234320D01*
X122694000Y-82234320D01*
X122698122Y-82247005D01*
X122702243Y-82250000D01*
X124528320Y-82250000D01*
X124541005Y-82245878D01*
X124544000Y-82241757D01*
X124544000Y-82234320D01*
X124744000Y-82234320D01*
X124748122Y-82247005D01*
X124752243Y-82250000D01*
X126578320Y-82250000D01*
X126591005Y-82245878D01*
X126594000Y-82241757D01*
X126594000Y-81485160D01*
X126593052Y-81475538D01*
X126584298Y-81431526D01*
X126576979Y-81413858D01*
X126543611Y-81363918D01*
X126530082Y-81350389D01*
X126480142Y-81317021D01*
X126462474Y-81309702D01*
X126418462Y-81300948D01*
X126408840Y-81300000D01*
X124759680Y-81300000D01*
X124746995Y-81304122D01*
X124744000Y-81308243D01*
X124744000Y-82234320D01*
X124544000Y-82234320D01*
X124544000Y-81315680D01*
X124539878Y-81302995D01*
X124535757Y-81300000D01*
X122879160Y-81300000D01*
X122869538Y-81300948D01*
X122825526Y-81309702D01*
X122807858Y-81317021D01*
X122757918Y-81350389D01*
X122744389Y-81363918D01*
X122711021Y-81413858D01*
X122703702Y-81431526D01*
X122694948Y-81475538D01*
X122694000Y-81485160D01*
X122694000Y-82234320D01*
X107014000Y-82234320D01*
X107014000Y-81485160D01*
X107013052Y-81475538D01*
X107004298Y-81431526D01*
X106996979Y-81413858D01*
X106963611Y-81363918D01*
X106950082Y-81350389D01*
X106900142Y-81317021D01*
X106882474Y-81309702D01*
X106838462Y-81300948D01*
X106828840Y-81300000D01*
X105179680Y-81300000D01*
X105166995Y-81304122D01*
X105164000Y-81308243D01*
X105164000Y-82234320D01*
X104964000Y-82234320D01*
X104964000Y-81315680D01*
X104959878Y-81302995D01*
X104955757Y-81300000D01*
X103299160Y-81300000D01*
X103289538Y-81300948D01*
X103245526Y-81309702D01*
X103227858Y-81317021D01*
X103177918Y-81350389D01*
X103164389Y-81363918D01*
X103131021Y-81413858D01*
X103123702Y-81431526D01*
X103114948Y-81475538D01*
X103114000Y-81485160D01*
X103114000Y-82234320D01*
X100200500Y-82234320D01*
X100200500Y-80679748D01*
X103113500Y-80679748D01*
X103125133Y-80738231D01*
X103169448Y-80804552D01*
X103235769Y-80848867D01*
X103245332Y-80850769D01*
X103245334Y-80850770D01*
X103268005Y-80855279D01*
X103294252Y-80860500D01*
X106833748Y-80860500D01*
X106859995Y-80855279D01*
X106882666Y-80850770D01*
X106882668Y-80850769D01*
X106892231Y-80848867D01*
X106958552Y-80804552D01*
X107002867Y-80738231D01*
X107014500Y-80679748D01*
X122693500Y-80679748D01*
X122705133Y-80738231D01*
X122749448Y-80804552D01*
X122815769Y-80848867D01*
X122825332Y-80850769D01*
X122825334Y-80850770D01*
X122848005Y-80855279D01*
X122874252Y-80860500D01*
X126413748Y-80860500D01*
X126439995Y-80855279D01*
X126462666Y-80850770D01*
X126462668Y-80850769D01*
X126472231Y-80848867D01*
X126538552Y-80804552D01*
X126582867Y-80738231D01*
X126594500Y-80679748D01*
X126594500Y-78940252D01*
X126582867Y-78881769D01*
X126538552Y-78815448D01*
X126472231Y-78771133D01*
X126462668Y-78769231D01*
X126462666Y-78769230D01*
X126439995Y-78764721D01*
X126413748Y-78759500D01*
X122874252Y-78759500D01*
X122848005Y-78764721D01*
X122825334Y-78769230D01*
X122825332Y-78769231D01*
X122815769Y-78771133D01*
X122749448Y-78815448D01*
X122705133Y-78881769D01*
X122693500Y-78940252D01*
X122693500Y-80679748D01*
X107014500Y-80679748D01*
X107014500Y-78940252D01*
X107002867Y-78881769D01*
X106958552Y-78815448D01*
X106892231Y-78771133D01*
X106882668Y-78769231D01*
X106882666Y-78769230D01*
X106859995Y-78764721D01*
X106833748Y-78759500D01*
X103294252Y-78759500D01*
X103268005Y-78764721D01*
X103245334Y-78769230D01*
X103245332Y-78769231D01*
X103235769Y-78771133D01*
X103169448Y-78815448D01*
X103125133Y-78881769D01*
X103113500Y-78940252D01*
X103113500Y-80679748D01*
X100200500Y-80679748D01*
X100200500Y-78139748D01*
X103113500Y-78139748D01*
X103125133Y-78198231D01*
X103169448Y-78264552D01*
X103235769Y-78308867D01*
X103245332Y-78310769D01*
X103245334Y-78310770D01*
X103268005Y-78315279D01*
X103294252Y-78320500D01*
X106833748Y-78320500D01*
X106859995Y-78315279D01*
X106882666Y-78310770D01*
X106882668Y-78310769D01*
X106892231Y-78308867D01*
X106958552Y-78264552D01*
X107002867Y-78198231D01*
X107014500Y-78139748D01*
X122693500Y-78139748D01*
X122705133Y-78198231D01*
X122749448Y-78264552D01*
X122815769Y-78308867D01*
X122825332Y-78310769D01*
X122825334Y-78310770D01*
X122848005Y-78315279D01*
X122874252Y-78320500D01*
X126413748Y-78320500D01*
X126439995Y-78315279D01*
X126462666Y-78310770D01*
X126462668Y-78310769D01*
X126472231Y-78308867D01*
X126538552Y-78264552D01*
X126582867Y-78198231D01*
X126594500Y-78139748D01*
X126594500Y-77406834D01*
X126613407Y-77348643D01*
X126623496Y-77336830D01*
X127587033Y-76373293D01*
X127641550Y-76345516D01*
X127669955Y-76345144D01*
X127750000Y-76355682D01*
X127906762Y-76335044D01*
X128052841Y-76274536D01*
X128178282Y-76178282D01*
X128274536Y-76052841D01*
X128335044Y-75906762D01*
X128355682Y-75750000D01*
X128335044Y-75593238D01*
X128274536Y-75447159D01*
X128178282Y-75321718D01*
X128052841Y-75225464D01*
X127906762Y-75164956D01*
X127750000Y-75144318D01*
X127593238Y-75164956D01*
X127447159Y-75225464D01*
X127321718Y-75321718D01*
X127225464Y-75447159D01*
X127164956Y-75593238D01*
X127144318Y-75750000D01*
X127154856Y-75830042D01*
X127143706Y-75890201D01*
X127126707Y-75912967D01*
X126714244Y-76325430D01*
X126659727Y-76353207D01*
X126599295Y-76343636D01*
X126561925Y-76310428D01*
X126543971Y-76283558D01*
X126538552Y-76275448D01*
X126472231Y-76231133D01*
X126462668Y-76229231D01*
X126462666Y-76229230D01*
X126439995Y-76224721D01*
X126413748Y-76219500D01*
X122874252Y-76219500D01*
X122848005Y-76224721D01*
X122825334Y-76229230D01*
X122825332Y-76229231D01*
X122815769Y-76231133D01*
X122749448Y-76275448D01*
X122705133Y-76341769D01*
X122703231Y-76351332D01*
X122703230Y-76351334D01*
X122698862Y-76373293D01*
X122693500Y-76400252D01*
X122693500Y-78139748D01*
X107014500Y-78139748D01*
X107014500Y-76400252D01*
X107009138Y-76373293D01*
X107004770Y-76351334D01*
X107004769Y-76351332D01*
X107002867Y-76341769D01*
X106958552Y-76275448D01*
X106892231Y-76231133D01*
X106882668Y-76229231D01*
X106882666Y-76229230D01*
X106859995Y-76224721D01*
X106833748Y-76219500D01*
X103294252Y-76219500D01*
X103268005Y-76224721D01*
X103245334Y-76229230D01*
X103245332Y-76229231D01*
X103235769Y-76231133D01*
X103169448Y-76275448D01*
X103125133Y-76341769D01*
X103123231Y-76351332D01*
X103123230Y-76351334D01*
X103118862Y-76373293D01*
X103113500Y-76400252D01*
X103113500Y-78139748D01*
X100200500Y-78139748D01*
X100200500Y-74650000D01*
X102044318Y-74650000D01*
X102064956Y-74806762D01*
X102125464Y-74952841D01*
X102221718Y-75078282D01*
X102347159Y-75174536D01*
X102493238Y-75235044D01*
X102650000Y-75255682D01*
X102806762Y-75235044D01*
X102952841Y-75174536D01*
X102957990Y-75170585D01*
X102963607Y-75167342D01*
X102964952Y-75169671D01*
X103011914Y-75153044D01*
X103070579Y-75170425D01*
X103107823Y-75218968D01*
X103113500Y-75252010D01*
X103113500Y-75599748D01*
X103125133Y-75658231D01*
X103169448Y-75724552D01*
X103235769Y-75768867D01*
X103245332Y-75770769D01*
X103245334Y-75770770D01*
X103268005Y-75775279D01*
X103294252Y-75780500D01*
X106833748Y-75780500D01*
X106859995Y-75775279D01*
X106882666Y-75770770D01*
X106882668Y-75770769D01*
X106892231Y-75768867D01*
X106958552Y-75724552D01*
X107002867Y-75658231D01*
X107014500Y-75599748D01*
X122693500Y-75599748D01*
X122705133Y-75658231D01*
X122749448Y-75724552D01*
X122815769Y-75768867D01*
X122825332Y-75770769D01*
X122825334Y-75770770D01*
X122848005Y-75775279D01*
X122874252Y-75780500D01*
X126413748Y-75780500D01*
X126439995Y-75775279D01*
X126462666Y-75770770D01*
X126462668Y-75770769D01*
X126472231Y-75768867D01*
X126538552Y-75724552D01*
X126582867Y-75658231D01*
X126594500Y-75599748D01*
X126594500Y-73860252D01*
X126582867Y-73801769D01*
X126538552Y-73735448D01*
X126472231Y-73691133D01*
X126462668Y-73689231D01*
X126462666Y-73689230D01*
X126439995Y-73684721D01*
X126413748Y-73679500D01*
X122874252Y-73679500D01*
X122848005Y-73684721D01*
X122825334Y-73689230D01*
X122825332Y-73689231D01*
X122815769Y-73691133D01*
X122749448Y-73735448D01*
X122705133Y-73801769D01*
X122693500Y-73860252D01*
X122693500Y-75599748D01*
X107014500Y-75599748D01*
X107014500Y-73860252D01*
X107002867Y-73801769D01*
X106958552Y-73735448D01*
X106892231Y-73691133D01*
X106882668Y-73689231D01*
X106882666Y-73689230D01*
X106859995Y-73684721D01*
X106833748Y-73679500D01*
X103294252Y-73679500D01*
X103268005Y-73684721D01*
X103245334Y-73689230D01*
X103245332Y-73689231D01*
X103235769Y-73691133D01*
X103169448Y-73735448D01*
X103125133Y-73801769D01*
X103113500Y-73860252D01*
X103113500Y-74047990D01*
X103094593Y-74106181D01*
X103045093Y-74142145D01*
X102983907Y-74142145D01*
X102964135Y-74131743D01*
X102963607Y-74132658D01*
X102957990Y-74129415D01*
X102952841Y-74125464D01*
X102806762Y-74064956D01*
X102650000Y-74044318D01*
X102493238Y-74064956D01*
X102347159Y-74125464D01*
X102221718Y-74221718D01*
X102125464Y-74347159D01*
X102064956Y-74493238D01*
X102044318Y-74650000D01*
X100200500Y-74650000D01*
X100200500Y-72200000D01*
X102044318Y-72200000D01*
X102064956Y-72356762D01*
X102125464Y-72502841D01*
X102221718Y-72628282D01*
X102347159Y-72724536D01*
X102493238Y-72785044D01*
X102650000Y-72805682D01*
X102806762Y-72785044D01*
X102952841Y-72724536D01*
X102957990Y-72720585D01*
X102963607Y-72717342D01*
X102964952Y-72719671D01*
X103011914Y-72703044D01*
X103070579Y-72720425D01*
X103107823Y-72768968D01*
X103113500Y-72802010D01*
X103113500Y-73059748D01*
X103125133Y-73118231D01*
X103169448Y-73184552D01*
X103235769Y-73228867D01*
X103245332Y-73230769D01*
X103245334Y-73230770D01*
X103268005Y-73235279D01*
X103294252Y-73240500D01*
X106833748Y-73240500D01*
X106859995Y-73235279D01*
X106882666Y-73230770D01*
X106882668Y-73230769D01*
X106892231Y-73228867D01*
X106958552Y-73184552D01*
X107002867Y-73118231D01*
X107014500Y-73059748D01*
X122693500Y-73059748D01*
X122705133Y-73118231D01*
X122749448Y-73184552D01*
X122815769Y-73228867D01*
X122825332Y-73230769D01*
X122825334Y-73230770D01*
X122848005Y-73235279D01*
X122874252Y-73240500D01*
X126413748Y-73240500D01*
X126439995Y-73235279D01*
X126462666Y-73230770D01*
X126462668Y-73230769D01*
X126472231Y-73228867D01*
X126538552Y-73184552D01*
X126582867Y-73118231D01*
X126594500Y-73059748D01*
X126594500Y-71320252D01*
X126582867Y-71261769D01*
X126538552Y-71195448D01*
X126472231Y-71151133D01*
X126462668Y-71149231D01*
X126462666Y-71149230D01*
X126439995Y-71144721D01*
X126413748Y-71139500D01*
X122874252Y-71139500D01*
X122848005Y-71144721D01*
X122825334Y-71149230D01*
X122825332Y-71149231D01*
X122815769Y-71151133D01*
X122749448Y-71195448D01*
X122705133Y-71261769D01*
X122693500Y-71320252D01*
X122693500Y-73059748D01*
X107014500Y-73059748D01*
X107014500Y-71320252D01*
X107002867Y-71261769D01*
X106958552Y-71195448D01*
X106892231Y-71151133D01*
X106882668Y-71149231D01*
X106882666Y-71149230D01*
X106859995Y-71144721D01*
X106833748Y-71139500D01*
X103294252Y-71139500D01*
X103268005Y-71144721D01*
X103245334Y-71149230D01*
X103245332Y-71149231D01*
X103235769Y-71151133D01*
X103169448Y-71195448D01*
X103125133Y-71261769D01*
X103113500Y-71320252D01*
X103113500Y-71597990D01*
X103094593Y-71656181D01*
X103045093Y-71692145D01*
X102983907Y-71692145D01*
X102964135Y-71681743D01*
X102963607Y-71682658D01*
X102957990Y-71679415D01*
X102952841Y-71675464D01*
X102806762Y-71614956D01*
X102650000Y-71594318D01*
X102493238Y-71614956D01*
X102347159Y-71675464D01*
X102221718Y-71771718D01*
X102125464Y-71897159D01*
X102064956Y-72043238D01*
X102044318Y-72200000D01*
X100200500Y-72200000D01*
X100200500Y-70514840D01*
X103114000Y-70514840D01*
X103114948Y-70524462D01*
X103123702Y-70568474D01*
X103131021Y-70586142D01*
X103164389Y-70636082D01*
X103177918Y-70649611D01*
X103227858Y-70682979D01*
X103245526Y-70690298D01*
X103289538Y-70699052D01*
X103299160Y-70700000D01*
X104948320Y-70700000D01*
X104961005Y-70695878D01*
X104964000Y-70691757D01*
X104964000Y-70684320D01*
X105164000Y-70684320D01*
X105168122Y-70697005D01*
X105172243Y-70700000D01*
X106828840Y-70700000D01*
X106838462Y-70699052D01*
X106882474Y-70690298D01*
X106900142Y-70682979D01*
X106950082Y-70649611D01*
X106963611Y-70636082D01*
X106996979Y-70586142D01*
X107004298Y-70568474D01*
X107013052Y-70524462D01*
X107014000Y-70514840D01*
X122694000Y-70514840D01*
X122694948Y-70524462D01*
X122703702Y-70568474D01*
X122711021Y-70586142D01*
X122744389Y-70636082D01*
X122757918Y-70649611D01*
X122807858Y-70682979D01*
X122825526Y-70690298D01*
X122869538Y-70699052D01*
X122879160Y-70700000D01*
X124528320Y-70700000D01*
X124541005Y-70695878D01*
X124544000Y-70691757D01*
X124544000Y-70684320D01*
X124744000Y-70684320D01*
X124748122Y-70697005D01*
X124752243Y-70700000D01*
X126408840Y-70700000D01*
X126418462Y-70699052D01*
X126462474Y-70690298D01*
X126480142Y-70682979D01*
X126530082Y-70649611D01*
X126543611Y-70636082D01*
X126576979Y-70586142D01*
X126584298Y-70568474D01*
X126593052Y-70524462D01*
X126594000Y-70514840D01*
X126594000Y-69765680D01*
X126589878Y-69752995D01*
X126585757Y-69750000D01*
X124759680Y-69750000D01*
X124746995Y-69754122D01*
X124744000Y-69758243D01*
X124744000Y-70684320D01*
X124544000Y-70684320D01*
X124544000Y-69765680D01*
X124539878Y-69752995D01*
X124535757Y-69750000D01*
X122709680Y-69750000D01*
X122696995Y-69754122D01*
X122694000Y-69758243D01*
X122694000Y-70514840D01*
X107014000Y-70514840D01*
X107014000Y-69765680D01*
X107009878Y-69752995D01*
X107005757Y-69750000D01*
X105179680Y-69750000D01*
X105166995Y-69754122D01*
X105164000Y-69758243D01*
X105164000Y-70684320D01*
X104964000Y-70684320D01*
X104964000Y-69765680D01*
X104959878Y-69752995D01*
X104955757Y-69750000D01*
X103129680Y-69750000D01*
X103116995Y-69754122D01*
X103114000Y-69758243D01*
X103114000Y-70514840D01*
X100200500Y-70514840D01*
X100200500Y-69534320D01*
X103114000Y-69534320D01*
X103118122Y-69547005D01*
X103122243Y-69550000D01*
X104948320Y-69550000D01*
X104961005Y-69545878D01*
X104964000Y-69541757D01*
X104964000Y-69534320D01*
X105164000Y-69534320D01*
X105168122Y-69547005D01*
X105172243Y-69550000D01*
X106998320Y-69550000D01*
X107011005Y-69545878D01*
X107014000Y-69541757D01*
X107014000Y-69534320D01*
X122694000Y-69534320D01*
X122698122Y-69547005D01*
X122702243Y-69550000D01*
X124528320Y-69550000D01*
X124541005Y-69545878D01*
X124544000Y-69541757D01*
X124544000Y-69534320D01*
X124744000Y-69534320D01*
X124748122Y-69547005D01*
X124752243Y-69550000D01*
X126578320Y-69550000D01*
X126591005Y-69545878D01*
X126594000Y-69541757D01*
X126594000Y-68785160D01*
X126593052Y-68775538D01*
X126584298Y-68731526D01*
X126576979Y-68713858D01*
X126543611Y-68663918D01*
X126530082Y-68650389D01*
X126480142Y-68617021D01*
X126462474Y-68609702D01*
X126418462Y-68600948D01*
X126408840Y-68600000D01*
X124759680Y-68600000D01*
X124746995Y-68604122D01*
X124744000Y-68608243D01*
X124744000Y-69534320D01*
X124544000Y-69534320D01*
X124544000Y-68615680D01*
X124539878Y-68602995D01*
X124535757Y-68600000D01*
X122879160Y-68600000D01*
X122869538Y-68600948D01*
X122825526Y-68609702D01*
X122807858Y-68617021D01*
X122757918Y-68650389D01*
X122744389Y-68663918D01*
X122711021Y-68713858D01*
X122703702Y-68731526D01*
X122694948Y-68775538D01*
X122694000Y-68785160D01*
X122694000Y-69534320D01*
X107014000Y-69534320D01*
X107014000Y-68785160D01*
X107013052Y-68775538D01*
X107004298Y-68731526D01*
X106996979Y-68713858D01*
X106963611Y-68663918D01*
X106950082Y-68650389D01*
X106900142Y-68617021D01*
X106882474Y-68609702D01*
X106838462Y-68600948D01*
X106828840Y-68600000D01*
X105179680Y-68600000D01*
X105166995Y-68604122D01*
X105164000Y-68608243D01*
X105164000Y-69534320D01*
X104964000Y-69534320D01*
X104964000Y-68615680D01*
X104959878Y-68602995D01*
X104955757Y-68600000D01*
X103299160Y-68600000D01*
X103289538Y-68600948D01*
X103245526Y-68609702D01*
X103227858Y-68617021D01*
X103177918Y-68650389D01*
X103164389Y-68663918D01*
X103131021Y-68713858D01*
X103123702Y-68731526D01*
X103114948Y-68775538D01*
X103114000Y-68785160D01*
X103114000Y-69534320D01*
X100200500Y-69534320D01*
X100200500Y-67979748D01*
X103113500Y-67979748D01*
X103125133Y-68038231D01*
X103169448Y-68104552D01*
X103235769Y-68148867D01*
X103245332Y-68150769D01*
X103245334Y-68150770D01*
X103268005Y-68155279D01*
X103294252Y-68160500D01*
X106833748Y-68160500D01*
X106859995Y-68155279D01*
X106882666Y-68150770D01*
X106882668Y-68150769D01*
X106892231Y-68148867D01*
X106958552Y-68104552D01*
X107002867Y-68038231D01*
X107014500Y-67979748D01*
X122693500Y-67979748D01*
X122705133Y-68038231D01*
X122749448Y-68104552D01*
X122815769Y-68148867D01*
X122825332Y-68150769D01*
X122825334Y-68150770D01*
X122848005Y-68155279D01*
X122874252Y-68160500D01*
X126413748Y-68160500D01*
X126439995Y-68155279D01*
X126462666Y-68150770D01*
X126462668Y-68150769D01*
X126472231Y-68148867D01*
X126538552Y-68104552D01*
X126582867Y-68038231D01*
X126594500Y-67979748D01*
X126594500Y-66240252D01*
X126582867Y-66181769D01*
X126538552Y-66115448D01*
X126472231Y-66071133D01*
X126462668Y-66069231D01*
X126462666Y-66069230D01*
X126439995Y-66064721D01*
X126413748Y-66059500D01*
X122874252Y-66059500D01*
X122848005Y-66064721D01*
X122825334Y-66069230D01*
X122825332Y-66069231D01*
X122815769Y-66071133D01*
X122749448Y-66115448D01*
X122705133Y-66181769D01*
X122693500Y-66240252D01*
X122693500Y-67979748D01*
X107014500Y-67979748D01*
X107014500Y-66240252D01*
X107002867Y-66181769D01*
X106958552Y-66115448D01*
X106892231Y-66071133D01*
X106882668Y-66069231D01*
X106882666Y-66069230D01*
X106859995Y-66064721D01*
X106833748Y-66059500D01*
X103294252Y-66059500D01*
X103268005Y-66064721D01*
X103245334Y-66069230D01*
X103245332Y-66069231D01*
X103235769Y-66071133D01*
X103169448Y-66115448D01*
X103125133Y-66181769D01*
X103113500Y-66240252D01*
X103113500Y-67979748D01*
X100200500Y-67979748D01*
X100200500Y-64650000D01*
X101944318Y-64650000D01*
X101964956Y-64806762D01*
X102025464Y-64952841D01*
X102121718Y-65078282D01*
X102247159Y-65174536D01*
X102393238Y-65235044D01*
X102550000Y-65255682D01*
X102706762Y-65235044D01*
X102852841Y-65174536D01*
X102954234Y-65096735D01*
X103011908Y-65076311D01*
X103070574Y-65093688D01*
X103107821Y-65142230D01*
X103113500Y-65175277D01*
X103113500Y-65439748D01*
X103125133Y-65498231D01*
X103169448Y-65564552D01*
X103235769Y-65608867D01*
X103245332Y-65610769D01*
X103245334Y-65610770D01*
X103268005Y-65615279D01*
X103294252Y-65620500D01*
X106833748Y-65620500D01*
X106859995Y-65615279D01*
X106882666Y-65610770D01*
X106882668Y-65610769D01*
X106892231Y-65608867D01*
X106958552Y-65564552D01*
X107002867Y-65498231D01*
X107014500Y-65439748D01*
X122693500Y-65439748D01*
X122705133Y-65498231D01*
X122749448Y-65564552D01*
X122815769Y-65608867D01*
X122825332Y-65610769D01*
X122825334Y-65610770D01*
X122848005Y-65615279D01*
X122874252Y-65620500D01*
X126413748Y-65620500D01*
X126439995Y-65615279D01*
X126462666Y-65610770D01*
X126462668Y-65610769D01*
X126472231Y-65608867D01*
X126538552Y-65564552D01*
X126582867Y-65498231D01*
X126594500Y-65439748D01*
X126594500Y-63700252D01*
X126582867Y-63641769D01*
X126538552Y-63575448D01*
X126472231Y-63531133D01*
X126462668Y-63529231D01*
X126462666Y-63529230D01*
X126439995Y-63524721D01*
X126413748Y-63519500D01*
X122874252Y-63519500D01*
X122848005Y-63524721D01*
X122825334Y-63529230D01*
X122825332Y-63529231D01*
X122815769Y-63531133D01*
X122749448Y-63575448D01*
X122705133Y-63641769D01*
X122693500Y-63700252D01*
X122693500Y-65439748D01*
X107014500Y-65439748D01*
X107014500Y-63700252D01*
X107002867Y-63641769D01*
X106958552Y-63575448D01*
X106892231Y-63531133D01*
X106882668Y-63529231D01*
X106882666Y-63529230D01*
X106859995Y-63524721D01*
X106833748Y-63519500D01*
X103294252Y-63519500D01*
X103268005Y-63524721D01*
X103245334Y-63529230D01*
X103245332Y-63529231D01*
X103235769Y-63531133D01*
X103169448Y-63575448D01*
X103125133Y-63641769D01*
X103113500Y-63700252D01*
X103113500Y-64124723D01*
X103094593Y-64182914D01*
X103045093Y-64218878D01*
X102983907Y-64218878D01*
X102954235Y-64203266D01*
X102852841Y-64125464D01*
X102706762Y-64064956D01*
X102550000Y-64044318D01*
X102393238Y-64064956D01*
X102247159Y-64125464D01*
X102121718Y-64221718D01*
X102025464Y-64347159D01*
X101964956Y-64493238D01*
X101944318Y-64650000D01*
X100200500Y-64650000D01*
X100200500Y-62050000D01*
X101994318Y-62050000D01*
X102014956Y-62206762D01*
X102075464Y-62352841D01*
X102171718Y-62478282D01*
X102297159Y-62574536D01*
X102443238Y-62635044D01*
X102600000Y-62655682D01*
X102756762Y-62635044D01*
X102902841Y-62574536D01*
X102954232Y-62535102D01*
X103011909Y-62514678D01*
X103070575Y-62532056D01*
X103107822Y-62580598D01*
X103113500Y-62613644D01*
X103113500Y-62899748D01*
X103125133Y-62958231D01*
X103169448Y-63024552D01*
X103235769Y-63068867D01*
X103245332Y-63070769D01*
X103245334Y-63070770D01*
X103268005Y-63075279D01*
X103294252Y-63080500D01*
X106833748Y-63080500D01*
X106859995Y-63075279D01*
X106882666Y-63070770D01*
X106882668Y-63070769D01*
X106892231Y-63068867D01*
X106958552Y-63024552D01*
X107002867Y-62958231D01*
X107014500Y-62899748D01*
X122693500Y-62899748D01*
X122705133Y-62958231D01*
X122749448Y-63024552D01*
X122815769Y-63068867D01*
X122825332Y-63070769D01*
X122825334Y-63070770D01*
X122848005Y-63075279D01*
X122874252Y-63080500D01*
X126413748Y-63080500D01*
X126472231Y-63068867D01*
X126480338Y-63063450D01*
X126484599Y-63061685D01*
X126545595Y-63056884D01*
X126592489Y-63083145D01*
X126634735Y-63125391D01*
X126734457Y-63203583D01*
X126888983Y-63273355D01*
X127055692Y-63304252D01*
X127124491Y-63300285D01*
X127218999Y-63294836D01*
X127219002Y-63294835D01*
X127224959Y-63294492D01*
X127387011Y-63244639D01*
X127532494Y-63157569D01*
X127536728Y-63153379D01*
X127536732Y-63153376D01*
X127648771Y-63042505D01*
X127648772Y-63042504D01*
X127653010Y-63038310D01*
X127741597Y-62893746D01*
X127793145Y-62732224D01*
X127804678Y-62563070D01*
X127788981Y-62473129D01*
X127776553Y-62401924D01*
X127776553Y-62401923D01*
X127775527Y-62396046D01*
X127707378Y-62240797D01*
X127627978Y-62137321D01*
X127064922Y-61574265D01*
X127060323Y-61569341D01*
X127026092Y-61530101D01*
X127022169Y-61525604D01*
X126969939Y-61488897D01*
X126965786Y-61485812D01*
X126920242Y-61450100D01*
X126920239Y-61450098D01*
X126915543Y-61446416D01*
X126910099Y-61443958D01*
X126907165Y-61442633D01*
X126890972Y-61433398D01*
X126883453Y-61428113D01*
X126877894Y-61425946D01*
X126877891Y-61425944D01*
X126823973Y-61404922D01*
X126819197Y-61402914D01*
X126790920Y-61390147D01*
X126761016Y-61376645D01*
X126751975Y-61374969D01*
X126734062Y-61369867D01*
X126725487Y-61366524D01*
X126719571Y-61365745D01*
X126719570Y-61365745D01*
X126680578Y-61360612D01*
X126625353Y-61334271D01*
X126596158Y-61280501D01*
X126594500Y-61262459D01*
X126594500Y-61160252D01*
X126582867Y-61101769D01*
X126538552Y-61035448D01*
X126472231Y-60991133D01*
X126462668Y-60989231D01*
X126462666Y-60989230D01*
X126439995Y-60984721D01*
X126413748Y-60979500D01*
X122874252Y-60979500D01*
X122848005Y-60984721D01*
X122825334Y-60989230D01*
X122825332Y-60989231D01*
X122815769Y-60991133D01*
X122749448Y-61035448D01*
X122705133Y-61101769D01*
X122693500Y-61160252D01*
X122693500Y-62899748D01*
X107014500Y-62899748D01*
X107014500Y-61160252D01*
X107002867Y-61101769D01*
X106958552Y-61035448D01*
X106892231Y-60991133D01*
X106882668Y-60989231D01*
X106882666Y-60989230D01*
X106859995Y-60984721D01*
X106833748Y-60979500D01*
X103294252Y-60979500D01*
X103268005Y-60984721D01*
X103245334Y-60989230D01*
X103245332Y-60989231D01*
X103235769Y-60991133D01*
X103169448Y-61035448D01*
X103125133Y-61101769D01*
X103113500Y-61160252D01*
X103113500Y-61486356D01*
X103094593Y-61544547D01*
X103045093Y-61580511D01*
X102983907Y-61580511D01*
X102954233Y-61564898D01*
X102907990Y-61529415D01*
X102902841Y-61525464D01*
X102756762Y-61464956D01*
X102600000Y-61444318D01*
X102443238Y-61464956D01*
X102297159Y-61525464D01*
X102171718Y-61621718D01*
X102075464Y-61747159D01*
X102014956Y-61893238D01*
X101994318Y-62050000D01*
X100200500Y-62050000D01*
X100200500Y-59500000D01*
X102044318Y-59500000D01*
X102064956Y-59656762D01*
X102125464Y-59802841D01*
X102221718Y-59928282D01*
X102347159Y-60024536D01*
X102493238Y-60085044D01*
X102650000Y-60105682D01*
X102806762Y-60085044D01*
X102952841Y-60024536D01*
X102957990Y-60020585D01*
X102963607Y-60017342D01*
X102964952Y-60019671D01*
X103011914Y-60003044D01*
X103070579Y-60020425D01*
X103107823Y-60068968D01*
X103113500Y-60102010D01*
X103113500Y-60359748D01*
X103125133Y-60418231D01*
X103169448Y-60484552D01*
X103235769Y-60528867D01*
X103245332Y-60530769D01*
X103245334Y-60530770D01*
X103268005Y-60535279D01*
X103294252Y-60540500D01*
X106833748Y-60540500D01*
X106859995Y-60535279D01*
X106882666Y-60530770D01*
X106882668Y-60530769D01*
X106892231Y-60528867D01*
X106958552Y-60484552D01*
X107002867Y-60418231D01*
X107014500Y-60359748D01*
X122693500Y-60359748D01*
X122705133Y-60418231D01*
X122749448Y-60484552D01*
X122815769Y-60528867D01*
X122825332Y-60530769D01*
X122825334Y-60530770D01*
X122848005Y-60535279D01*
X122874252Y-60540500D01*
X126413748Y-60540500D01*
X126439995Y-60535279D01*
X126462666Y-60530770D01*
X126462668Y-60530769D01*
X126472231Y-60528867D01*
X126538552Y-60484552D01*
X126582867Y-60418231D01*
X126594500Y-60359748D01*
X126594500Y-58620252D01*
X126582867Y-58561769D01*
X126538552Y-58495448D01*
X126472231Y-58451133D01*
X126462668Y-58449231D01*
X126462666Y-58449230D01*
X126439995Y-58444721D01*
X126413748Y-58439500D01*
X122874252Y-58439500D01*
X122848005Y-58444721D01*
X122825334Y-58449230D01*
X122825332Y-58449231D01*
X122815769Y-58451133D01*
X122749448Y-58495448D01*
X122705133Y-58561769D01*
X122693500Y-58620252D01*
X122693500Y-60359748D01*
X107014500Y-60359748D01*
X107014500Y-58620252D01*
X107002867Y-58561769D01*
X106958552Y-58495448D01*
X106892231Y-58451133D01*
X106882668Y-58449231D01*
X106882666Y-58449230D01*
X106859995Y-58444721D01*
X106833748Y-58439500D01*
X103294252Y-58439500D01*
X103268005Y-58444721D01*
X103245334Y-58449230D01*
X103245332Y-58449231D01*
X103235769Y-58451133D01*
X103169448Y-58495448D01*
X103125133Y-58561769D01*
X103113500Y-58620252D01*
X103113500Y-58897990D01*
X103094593Y-58956181D01*
X103045093Y-58992145D01*
X102983907Y-58992145D01*
X102964135Y-58981743D01*
X102963607Y-58982658D01*
X102957990Y-58979415D01*
X102952841Y-58975464D01*
X102806762Y-58914956D01*
X102650000Y-58894318D01*
X102493238Y-58914956D01*
X102347159Y-58975464D01*
X102221718Y-59071718D01*
X102125464Y-59197159D01*
X102064956Y-59343238D01*
X102044318Y-59500000D01*
X100200500Y-59500000D01*
X100200500Y-57814840D01*
X103114000Y-57814840D01*
X103114948Y-57824462D01*
X103123702Y-57868474D01*
X103131021Y-57886142D01*
X103164389Y-57936082D01*
X103177918Y-57949611D01*
X103227858Y-57982979D01*
X103245526Y-57990298D01*
X103289538Y-57999052D01*
X103299160Y-58000000D01*
X104948320Y-58000000D01*
X104961005Y-57995878D01*
X104964000Y-57991757D01*
X104964000Y-57984320D01*
X105164000Y-57984320D01*
X105168122Y-57997005D01*
X105172243Y-58000000D01*
X106828840Y-58000000D01*
X106838462Y-57999052D01*
X106882474Y-57990298D01*
X106900142Y-57982979D01*
X106950082Y-57949611D01*
X106963611Y-57936082D01*
X106996979Y-57886142D01*
X107004298Y-57868474D01*
X107013052Y-57824462D01*
X107014000Y-57814840D01*
X122694000Y-57814840D01*
X122694948Y-57824462D01*
X122703702Y-57868474D01*
X122711021Y-57886142D01*
X122744389Y-57936082D01*
X122757918Y-57949611D01*
X122807858Y-57982979D01*
X122825526Y-57990298D01*
X122869538Y-57999052D01*
X122879160Y-58000000D01*
X124528320Y-58000000D01*
X124541005Y-57995878D01*
X124544000Y-57991757D01*
X124544000Y-57984320D01*
X124744000Y-57984320D01*
X124748122Y-57997005D01*
X124752243Y-58000000D01*
X126408840Y-58000000D01*
X126418462Y-57999052D01*
X126462474Y-57990298D01*
X126480142Y-57982979D01*
X126530082Y-57949611D01*
X126543611Y-57936082D01*
X126576979Y-57886142D01*
X126584298Y-57868474D01*
X126593052Y-57824462D01*
X126594000Y-57814840D01*
X126594000Y-57065680D01*
X126589878Y-57052995D01*
X126585757Y-57050000D01*
X124759680Y-57050000D01*
X124746995Y-57054122D01*
X124744000Y-57058243D01*
X124744000Y-57984320D01*
X124544000Y-57984320D01*
X124544000Y-57065680D01*
X124539878Y-57052995D01*
X124535757Y-57050000D01*
X122709680Y-57050000D01*
X122696995Y-57054122D01*
X122694000Y-57058243D01*
X122694000Y-57814840D01*
X107014000Y-57814840D01*
X107014000Y-57065680D01*
X107009878Y-57052995D01*
X107005757Y-57050000D01*
X105179680Y-57050000D01*
X105166995Y-57054122D01*
X105164000Y-57058243D01*
X105164000Y-57984320D01*
X104964000Y-57984320D01*
X104964000Y-57065680D01*
X104959878Y-57052995D01*
X104955757Y-57050000D01*
X103129680Y-57050000D01*
X103116995Y-57054122D01*
X103114000Y-57058243D01*
X103114000Y-57814840D01*
X100200500Y-57814840D01*
X100200500Y-56834320D01*
X103114000Y-56834320D01*
X103118122Y-56847005D01*
X103122243Y-56850000D01*
X104948320Y-56850000D01*
X104961005Y-56845878D01*
X104964000Y-56841757D01*
X104964000Y-56834320D01*
X105164000Y-56834320D01*
X105168122Y-56847005D01*
X105172243Y-56850000D01*
X106998320Y-56850000D01*
X107011005Y-56845878D01*
X107014000Y-56841757D01*
X107014000Y-56834320D01*
X122694000Y-56834320D01*
X122698122Y-56847005D01*
X122702243Y-56850000D01*
X124528320Y-56850000D01*
X124541005Y-56845878D01*
X124544000Y-56841757D01*
X124544000Y-56834320D01*
X124744000Y-56834320D01*
X124748122Y-56847005D01*
X124752243Y-56850000D01*
X126578320Y-56850000D01*
X126591005Y-56845878D01*
X126594000Y-56841757D01*
X126594000Y-56085160D01*
X126593052Y-56075538D01*
X126584298Y-56031526D01*
X126576979Y-56013858D01*
X126543611Y-55963918D01*
X126530082Y-55950389D01*
X126480142Y-55917021D01*
X126462474Y-55909702D01*
X126418462Y-55900948D01*
X126408840Y-55900000D01*
X124759680Y-55900000D01*
X124746995Y-55904122D01*
X124744000Y-55908243D01*
X124744000Y-56834320D01*
X124544000Y-56834320D01*
X124544000Y-55915680D01*
X124539878Y-55902995D01*
X124535757Y-55900000D01*
X122879160Y-55900000D01*
X122869538Y-55900948D01*
X122825526Y-55909702D01*
X122807858Y-55917021D01*
X122757918Y-55950389D01*
X122744389Y-55963918D01*
X122711021Y-56013858D01*
X122703702Y-56031526D01*
X122694948Y-56075538D01*
X122694000Y-56085160D01*
X122694000Y-56834320D01*
X107014000Y-56834320D01*
X107014000Y-56085160D01*
X107013052Y-56075538D01*
X107004298Y-56031526D01*
X106996979Y-56013858D01*
X106963611Y-55963918D01*
X106950082Y-55950389D01*
X106900142Y-55917021D01*
X106882474Y-55909702D01*
X106838462Y-55900948D01*
X106828840Y-55900000D01*
X105179680Y-55900000D01*
X105166995Y-55904122D01*
X105164000Y-55908243D01*
X105164000Y-56834320D01*
X104964000Y-56834320D01*
X104964000Y-55915680D01*
X104959878Y-55902995D01*
X104955757Y-55900000D01*
X103299160Y-55900000D01*
X103289538Y-55900948D01*
X103245526Y-55909702D01*
X103227858Y-55917021D01*
X103177918Y-55950389D01*
X103164389Y-55963918D01*
X103131021Y-56013858D01*
X103123702Y-56031526D01*
X103114948Y-56075538D01*
X103114000Y-56085160D01*
X103114000Y-56834320D01*
X100200500Y-56834320D01*
X100200500Y-55279748D01*
X103113500Y-55279748D01*
X103125133Y-55338231D01*
X103169448Y-55404552D01*
X103235769Y-55448867D01*
X103245332Y-55450769D01*
X103245334Y-55450770D01*
X103268005Y-55455279D01*
X103294252Y-55460500D01*
X106833748Y-55460500D01*
X106859995Y-55455279D01*
X106882666Y-55450770D01*
X106882668Y-55450769D01*
X106892231Y-55448867D01*
X106958552Y-55404552D01*
X107002867Y-55338231D01*
X107014500Y-55279748D01*
X107014500Y-55079126D01*
X111424541Y-55079126D01*
X111454935Y-55280097D01*
X111525119Y-55470852D01*
X111632226Y-55643599D01*
X111771881Y-55791280D01*
X111775986Y-55794154D01*
X111775989Y-55794157D01*
X111859358Y-55852532D01*
X111938379Y-55907863D01*
X111942975Y-55909852D01*
X111942977Y-55909853D01*
X112036651Y-55950389D01*
X112124919Y-55988586D01*
X112323880Y-56030151D01*
X112328432Y-56030390D01*
X112329234Y-56030432D01*
X112329249Y-56030432D01*
X112330539Y-56030500D01*
X112479800Y-56030500D01*
X112482288Y-56030247D01*
X112482294Y-56030247D01*
X112542816Y-56024099D01*
X112631216Y-56015120D01*
X112825172Y-55954338D01*
X113002944Y-55855797D01*
X113157271Y-55723523D01*
X113281848Y-55562919D01*
X113371587Y-55380545D01*
X113422822Y-55183852D01*
X113428310Y-55079126D01*
X116274541Y-55079126D01*
X116304935Y-55280097D01*
X116375119Y-55470852D01*
X116482226Y-55643599D01*
X116621881Y-55791280D01*
X116625986Y-55794154D01*
X116625989Y-55794157D01*
X116709358Y-55852532D01*
X116788379Y-55907863D01*
X116792975Y-55909852D01*
X116792977Y-55909853D01*
X116886651Y-55950389D01*
X116974919Y-55988586D01*
X117173880Y-56030151D01*
X117178432Y-56030390D01*
X117179234Y-56030432D01*
X117179249Y-56030432D01*
X117180539Y-56030500D01*
X117329800Y-56030500D01*
X117332288Y-56030247D01*
X117332294Y-56030247D01*
X117392816Y-56024099D01*
X117481216Y-56015120D01*
X117675172Y-55954338D01*
X117852944Y-55855797D01*
X118007271Y-55723523D01*
X118131848Y-55562919D01*
X118221587Y-55380545D01*
X118247843Y-55279748D01*
X122693500Y-55279748D01*
X122705133Y-55338231D01*
X122749448Y-55404552D01*
X122815769Y-55448867D01*
X122825332Y-55450769D01*
X122825334Y-55450770D01*
X122848005Y-55455279D01*
X122874252Y-55460500D01*
X126413748Y-55460500D01*
X126439995Y-55455279D01*
X126462666Y-55450770D01*
X126462668Y-55450769D01*
X126472231Y-55448867D01*
X126538552Y-55404552D01*
X126582867Y-55338231D01*
X126594500Y-55279748D01*
X126594500Y-53540252D01*
X126582867Y-53481769D01*
X126538552Y-53415448D01*
X126472231Y-53371133D01*
X126462668Y-53369231D01*
X126462666Y-53369230D01*
X126439995Y-53364721D01*
X126413748Y-53359500D01*
X122874252Y-53359500D01*
X122848005Y-53364721D01*
X122825334Y-53369230D01*
X122825332Y-53369231D01*
X122815769Y-53371133D01*
X122749448Y-53415448D01*
X122705133Y-53481769D01*
X122693500Y-53540252D01*
X122693500Y-55279748D01*
X118247843Y-55279748D01*
X118272822Y-55183852D01*
X118283459Y-54980874D01*
X118253065Y-54779903D01*
X118182881Y-54589148D01*
X118075774Y-54416401D01*
X117936119Y-54268720D01*
X117932014Y-54265846D01*
X117932011Y-54265843D01*
X117773727Y-54155012D01*
X117769621Y-54152137D01*
X117765025Y-54150148D01*
X117765023Y-54150147D01*
X117587677Y-54073403D01*
X117587678Y-54073403D01*
X117583081Y-54071414D01*
X117384120Y-54029849D01*
X117379568Y-54029610D01*
X117378766Y-54029568D01*
X117378751Y-54029568D01*
X117377461Y-54029500D01*
X117228200Y-54029500D01*
X117225712Y-54029753D01*
X117225706Y-54029753D01*
X117165184Y-54035901D01*
X117076784Y-54044880D01*
X116882828Y-54105662D01*
X116705056Y-54204203D01*
X116550729Y-54336477D01*
X116426152Y-54497081D01*
X116336413Y-54679455D01*
X116285178Y-54876148D01*
X116274541Y-55079126D01*
X113428310Y-55079126D01*
X113433459Y-54980874D01*
X113403065Y-54779903D01*
X113332881Y-54589148D01*
X113225774Y-54416401D01*
X113086119Y-54268720D01*
X113082014Y-54265846D01*
X113082011Y-54265843D01*
X112923727Y-54155012D01*
X112919621Y-54152137D01*
X112915025Y-54150148D01*
X112915023Y-54150147D01*
X112737677Y-54073403D01*
X112737678Y-54073403D01*
X112733081Y-54071414D01*
X112534120Y-54029849D01*
X112529568Y-54029610D01*
X112528766Y-54029568D01*
X112528751Y-54029568D01*
X112527461Y-54029500D01*
X112378200Y-54029500D01*
X112375712Y-54029753D01*
X112375706Y-54029753D01*
X112315184Y-54035901D01*
X112226784Y-54044880D01*
X112032828Y-54105662D01*
X111855056Y-54204203D01*
X111700729Y-54336477D01*
X111576152Y-54497081D01*
X111486413Y-54679455D01*
X111435178Y-54876148D01*
X111424541Y-55079126D01*
X107014500Y-55079126D01*
X107014500Y-53540252D01*
X107002867Y-53481769D01*
X106958552Y-53415448D01*
X106892231Y-53371133D01*
X106882668Y-53369231D01*
X106882666Y-53369230D01*
X106859995Y-53364721D01*
X106833748Y-53359500D01*
X103294252Y-53359500D01*
X103268005Y-53364721D01*
X103245334Y-53369230D01*
X103245332Y-53369231D01*
X103235769Y-53371133D01*
X103169448Y-53415448D01*
X103125133Y-53481769D01*
X103113500Y-53540252D01*
X103113500Y-55279748D01*
X100200500Y-55279748D01*
X100200500Y-50999000D01*
X100219407Y-50940809D01*
X100268907Y-50904845D01*
X100299500Y-50900000D01*
X103014623Y-50900000D01*
X103072814Y-50918907D01*
G37*
%TD.AperFunction*%
%TD*%
%TA.AperFunction,Conductor*%
%TO.N,GND*%
G36*
X106517021Y-107488858D02*
G01*
X106509702Y-107506526D01*
X106500948Y-107550538D01*
X106500000Y-107560160D01*
X106500000Y-107984320D01*
X106504122Y-107997005D01*
X106508243Y-108000000D01*
X109084320Y-108000000D01*
X109097005Y-107995878D01*
X109100000Y-107991757D01*
X109100000Y-107560160D01*
X109099052Y-107550538D01*
X109090298Y-107506526D01*
X109082979Y-107488858D01*
X109057016Y-107450000D01*
X129799500Y-107450000D01*
X129799500Y-107700500D01*
X129780593Y-107758691D01*
X129731093Y-107794655D01*
X129700500Y-107799500D01*
X126005892Y-107799500D01*
X125954437Y-107799455D01*
X125944388Y-107804280D01*
X125944389Y-107804280D01*
X125943489Y-107804712D01*
X125922655Y-107811987D01*
X125910815Y-107814688D01*
X125902097Y-107821635D01*
X125901525Y-107822091D01*
X125882686Y-107833909D01*
X125871976Y-107839052D01*
X125864389Y-107848539D01*
X125848778Y-107864123D01*
X125839276Y-107871695D01*
X125834432Y-107881738D01*
X125834118Y-107882390D01*
X125822264Y-107901214D01*
X125814844Y-107910492D01*
X125812271Y-107921684D01*
X125812123Y-107922326D01*
X125804810Y-107943151D01*
X125799535Y-107954087D01*
X125799515Y-107977155D01*
X125797770Y-107977153D01*
X125797776Y-107977219D01*
X125799500Y-107977219D01*
X125799500Y-107994108D01*
X125799455Y-108045563D01*
X125799497Y-108045651D01*
X125799500Y-108045675D01*
X125799500Y-112851000D01*
X125780593Y-112909191D01*
X125731093Y-112945155D01*
X125700500Y-112950000D01*
X104299500Y-112950000D01*
X104241309Y-112931093D01*
X104205345Y-112881593D01*
X104200500Y-112851000D01*
X104200500Y-111589840D01*
X106500000Y-111589840D01*
X106500948Y-111599462D01*
X106509702Y-111643474D01*
X106517021Y-111661142D01*
X106550389Y-111711082D01*
X106563918Y-111724611D01*
X106613858Y-111757979D01*
X106631526Y-111765298D01*
X106675538Y-111774052D01*
X106685160Y-111775000D01*
X107684320Y-111775000D01*
X107697005Y-111770878D01*
X107700000Y-111766757D01*
X107700000Y-111759320D01*
X107900000Y-111759320D01*
X107904122Y-111772005D01*
X107908243Y-111775000D01*
X108914840Y-111775000D01*
X108924462Y-111774052D01*
X108968474Y-111765298D01*
X108986142Y-111757979D01*
X109036082Y-111724611D01*
X109049611Y-111711082D01*
X109082979Y-111661142D01*
X109090298Y-111643474D01*
X109099052Y-111599462D01*
X109100000Y-111589840D01*
X109100000Y-111165680D01*
X109095878Y-111152995D01*
X109091757Y-111150000D01*
X107915680Y-111150000D01*
X107902995Y-111154122D01*
X107900000Y-111158243D01*
X107900000Y-111759320D01*
X107700000Y-111759320D01*
X107700000Y-111165680D01*
X107695878Y-111152995D01*
X107691757Y-111150000D01*
X106515680Y-111150000D01*
X106502995Y-111154122D01*
X106500000Y-111158243D01*
X106500000Y-111589840D01*
X104200500Y-111589840D01*
X104200500Y-109100000D01*
X104431818Y-109100000D01*
X104452456Y-109256762D01*
X104512964Y-109402841D01*
X104609218Y-109528282D01*
X104734659Y-109624536D01*
X104880738Y-109685044D01*
X104967995Y-109696531D01*
X105025077Y-109724680D01*
X105170881Y-109870484D01*
X105178622Y-109879196D01*
X105200628Y-109907110D01*
X105206715Y-109911317D01*
X105249241Y-109940708D01*
X105251772Y-109942517D01*
X105293361Y-109973236D01*
X105293363Y-109973237D01*
X105299316Y-109977634D01*
X105306132Y-109980027D01*
X105312069Y-109984131D01*
X105319128Y-109986364D01*
X105319129Y-109986364D01*
X105339473Y-109992798D01*
X105368429Y-110001956D01*
X105371314Y-110002918D01*
X105427131Y-110022519D01*
X105433173Y-110022756D01*
X105435847Y-110023277D01*
X105441230Y-110024980D01*
X105447837Y-110025500D01*
X105501041Y-110025500D01*
X105504925Y-110025576D01*
X105508389Y-110025712D01*
X105565793Y-110046888D01*
X105599787Y-110097761D01*
X105601603Y-110105321D01*
X105611133Y-110153231D01*
X105655448Y-110219552D01*
X105721769Y-110263867D01*
X105731332Y-110265769D01*
X105731334Y-110265770D01*
X105754005Y-110270279D01*
X105780252Y-110275500D01*
X106440956Y-110275500D01*
X106499147Y-110294407D01*
X106535111Y-110343907D01*
X106535111Y-110405093D01*
X106523272Y-110429500D01*
X106517022Y-110438854D01*
X106509702Y-110456526D01*
X106500948Y-110500538D01*
X106500000Y-110510160D01*
X106500000Y-110934320D01*
X106504122Y-110947005D01*
X106508243Y-110950000D01*
X107684320Y-110950000D01*
X107697005Y-110945878D01*
X107700000Y-110941757D01*
X107700000Y-110934320D01*
X107900000Y-110934320D01*
X107904122Y-110947005D01*
X107908243Y-110950000D01*
X109084320Y-110950000D01*
X109097005Y-110945878D01*
X109100000Y-110941757D01*
X109100000Y-110510160D01*
X109099052Y-110500538D01*
X109090298Y-110456526D01*
X109082980Y-110438858D01*
X109076393Y-110429000D01*
X109059786Y-110370111D01*
X109080965Y-110312708D01*
X109131839Y-110278716D01*
X109158710Y-110275000D01*
X109184320Y-110275000D01*
X109197005Y-110270878D01*
X109200000Y-110266757D01*
X109200000Y-110259320D01*
X109400000Y-110259320D01*
X109404122Y-110272005D01*
X109408243Y-110275000D01*
X109814840Y-110275000D01*
X109824462Y-110274052D01*
X109868474Y-110265298D01*
X109886142Y-110257979D01*
X109936082Y-110224611D01*
X109949611Y-110211082D01*
X109982979Y-110161142D01*
X109990298Y-110143474D01*
X109999052Y-110099462D01*
X110000000Y-110089840D01*
X110000000Y-109690680D01*
X109995878Y-109677995D01*
X109991757Y-109675000D01*
X109415680Y-109675000D01*
X109402995Y-109679122D01*
X109400000Y-109683243D01*
X109400000Y-110259320D01*
X109200000Y-110259320D01*
X109200000Y-109690680D01*
X109195878Y-109677995D01*
X109191757Y-109675000D01*
X108615680Y-109675000D01*
X108602995Y-109679122D01*
X108600000Y-109683243D01*
X108600000Y-110089840D01*
X108600948Y-110099462D01*
X108609702Y-110143474D01*
X108617020Y-110161142D01*
X108623607Y-110171000D01*
X108640214Y-110229889D01*
X108619035Y-110287292D01*
X108568161Y-110321284D01*
X108541290Y-110325000D01*
X107915680Y-110325000D01*
X107902995Y-110329122D01*
X107900000Y-110333243D01*
X107900000Y-110934320D01*
X107700000Y-110934320D01*
X107700000Y-110340680D01*
X107695878Y-110327995D01*
X107691757Y-110325000D01*
X107059310Y-110325000D01*
X107001119Y-110306093D01*
X106965155Y-110256593D01*
X106965155Y-110195407D01*
X106976996Y-110170997D01*
X106983448Y-110161341D01*
X106988867Y-110153231D01*
X106990769Y-110143668D01*
X106990770Y-110143666D01*
X106999552Y-110099512D01*
X107000500Y-110094748D01*
X107000500Y-109055252D01*
X106988867Y-108996769D01*
X106976996Y-108979003D01*
X106960386Y-108920115D01*
X106981563Y-108862711D01*
X107032436Y-108828717D01*
X107059310Y-108825000D01*
X107684320Y-108825000D01*
X107697005Y-108820878D01*
X107700000Y-108816757D01*
X107700000Y-108809320D01*
X107900000Y-108809320D01*
X107904122Y-108822005D01*
X107908243Y-108825000D01*
X108541290Y-108825000D01*
X108599481Y-108843907D01*
X108635445Y-108893407D01*
X108635445Y-108954593D01*
X108623607Y-108979000D01*
X108617020Y-108988858D01*
X108609702Y-109006526D01*
X108600948Y-109050538D01*
X108600000Y-109060160D01*
X108600000Y-109459320D01*
X108604122Y-109472005D01*
X108608243Y-109475000D01*
X109184320Y-109475000D01*
X109197005Y-109470878D01*
X109200000Y-109466757D01*
X109200000Y-109459320D01*
X109400000Y-109459320D01*
X109404122Y-109472005D01*
X109408243Y-109475000D01*
X109984320Y-109475000D01*
X109997005Y-109470878D01*
X110000000Y-109466757D01*
X110000000Y-109060160D01*
X109999052Y-109050538D01*
X109990298Y-109006526D01*
X109982979Y-108988858D01*
X109949611Y-108938918D01*
X109936082Y-108925389D01*
X109886142Y-108892021D01*
X109868474Y-108884702D01*
X109824462Y-108875948D01*
X109814840Y-108875000D01*
X109415680Y-108875000D01*
X109402995Y-108879122D01*
X109400000Y-108883243D01*
X109400000Y-109459320D01*
X109200000Y-109459320D01*
X109200000Y-108890680D01*
X109195878Y-108877995D01*
X109191757Y-108875000D01*
X109158710Y-108875000D01*
X109100519Y-108856093D01*
X109064555Y-108806593D01*
X109064555Y-108745407D01*
X109076393Y-108721000D01*
X109082980Y-108711142D01*
X109090298Y-108693474D01*
X109099052Y-108649462D01*
X109100000Y-108639840D01*
X109100000Y-108215680D01*
X109095878Y-108202995D01*
X109091757Y-108200000D01*
X107915680Y-108200000D01*
X107902995Y-108204122D01*
X107900000Y-108208243D01*
X107900000Y-108809320D01*
X107700000Y-108809320D01*
X107700000Y-108215680D01*
X107695878Y-108202995D01*
X107691757Y-108200000D01*
X106515680Y-108200000D01*
X106502995Y-108204122D01*
X106500000Y-108208243D01*
X106500000Y-108639840D01*
X106500948Y-108649462D01*
X106509702Y-108693474D01*
X106517022Y-108711146D01*
X106523272Y-108720500D01*
X106539880Y-108779388D01*
X106518701Y-108836792D01*
X106467827Y-108870783D01*
X106440956Y-108874500D01*
X105780252Y-108874500D01*
X105757016Y-108879122D01*
X105731334Y-108884230D01*
X105731332Y-108884231D01*
X105721769Y-108886133D01*
X105713660Y-108891551D01*
X105709079Y-108893449D01*
X105648082Y-108898250D01*
X105595913Y-108866281D01*
X105579728Y-108839871D01*
X105564519Y-108803154D01*
X105562036Y-108797159D01*
X105465782Y-108671718D01*
X105340341Y-108575464D01*
X105194262Y-108514956D01*
X105037500Y-108494318D01*
X104880738Y-108514956D01*
X104734659Y-108575464D01*
X104609218Y-108671718D01*
X104512964Y-108797159D01*
X104452456Y-108943238D01*
X104431818Y-109100000D01*
X104200500Y-109100000D01*
X104200500Y-108005892D01*
X104200535Y-107965585D01*
X104200545Y-107954437D01*
X104195288Y-107943488D01*
X104188013Y-107922655D01*
X104187938Y-107922326D01*
X104185312Y-107910815D01*
X104177909Y-107901525D01*
X104166089Y-107882683D01*
X104160948Y-107871976D01*
X104151461Y-107864389D01*
X104135877Y-107848778D01*
X104128305Y-107839276D01*
X104117608Y-107834117D01*
X104098786Y-107822264D01*
X104089508Y-107814844D01*
X104077673Y-107812123D01*
X104056849Y-107804810D01*
X104055952Y-107804377D01*
X104055951Y-107804377D01*
X104045913Y-107799535D01*
X104034768Y-107799525D01*
X104034767Y-107799525D01*
X104022845Y-107799515D01*
X104022847Y-107797770D01*
X104022781Y-107797776D01*
X104022781Y-107799500D01*
X104005892Y-107799500D01*
X103954726Y-107799455D01*
X103954437Y-107799455D01*
X103954349Y-107799497D01*
X103954325Y-107799500D01*
X100299500Y-107799500D01*
X100241309Y-107780593D01*
X100205345Y-107731093D01*
X100200500Y-107700500D01*
X100200500Y-107450000D01*
X106542984Y-107450000D01*
X106517021Y-107488858D01*
G37*
%TD.AperFunction*%
%TD*%
M02*
